<?xml version="1.0" encoding="utf-8" standalone="no"?>
<!DOCTYPE svg PUBLIC "-//W3C//DTD SVG 1.1//EN"
  "http://www.w3.org/Graphics/SVG/1.1/DTD/svg11.dtd">
<svg xmlns:xlink="http://www.w3.org/1999/xlink" width="1271.6625pt" height="589.502931pt" viewBox="0 0 1271.6625 589.502931" xmlns="http://www.w3.org/2000/svg" version="1.1">
 <metadata>
  <rdf:RDF xmlns:dc="http://purl.org/dc/elements/1.1/" xmlns:cc="http://creativecommons.org/ns#" xmlns:rdf="http://www.w3.org/1999/02/22-rdf-syntax-ns#">
   <cc:Work>
    <dc:type rdf:resource="http://purl.org/dc/dcmitype/StillImage"/>
    <dc:date>2026-03-24T08:06:51.189825</dc:date>
    <dc:format>image/svg+xml</dc:format>
    <dc:creator>
     <cc:Agent>
      <dc:title>Matplotlib v3.10.8, https://matplotlib.org/</dc:title>
     </cc:Agent>
    </dc:creator>
   </cc:Work>
  </rdf:RDF>
 </metadata>
 <defs>
  <style type="text/css">*{stroke-linejoin: round; stroke-linecap: butt}</style>
 </defs>
 <g id="figure_1">
  <g id="patch_1">
   <path d="M 0 589.502931 
L 1271.6625 589.502931 
L 1271.6625 0 
L 0 0 
z
" style="fill: #ffffff"/>
  </g>
  <g id="axes_1">
   <g id="patch_2">
    <path d="M 57.5925 466.074635 
L 1264.4625 466.074635 
L 1264.4625 36.303437 
L 57.5925 36.303437 
z
" style="fill: #ffffff"/>
   </g>
   <g id="patch_3">
    <path d="M 112.450227 466.074635 
L 386.738864 466.074635 
L 386.738864 36.303437 
L 112.450227 36.303437 
z
" clip-path="url(#pf66728b48c)" style="fill: #f4f8ff; opacity: 0.75; stroke: #f4f8ff; stroke-width: 1.5; stroke-linejoin: miter"/>
   </g>
   <g id="patch_4">
    <path d="M 386.738864 466.074635 
L 661.0275 466.074635 
L 661.0275 36.303437 
L 386.738864 36.303437 
z
" clip-path="url(#pf66728b48c)" style="fill: #fff8f1; opacity: 0.75; stroke: #fff8f1; stroke-width: 1.5; stroke-linejoin: miter"/>
   </g>
   <g id="patch_5">
    <path d="M 661.0275 466.074635 
L 935.316136 466.074635 
L 935.316136 36.303437 
L 661.0275 36.303437 
z
" clip-path="url(#pf66728b48c)" style="fill: #f3fff3; opacity: 0.75; stroke: #f3fff3; stroke-width: 1.5; stroke-linejoin: miter"/>
   </g>
   <g id="patch_6">
    <path d="M 935.316136 466.074635 
L 1026.745682 466.074635 
L 1026.745682 36.303437 
L 935.316136 36.303437 
z
" clip-path="url(#pf66728b48c)" style="fill: #fff4fa; opacity: 0.75; stroke: #fff4fa; stroke-width: 1.5; stroke-linejoin: miter"/>
   </g>
   <g id="patch_7">
    <path d="M 1026.745682 466.074635 
L 1118.175227 466.074635 
L 1118.175227 36.303437 
L 1026.745682 36.303437 
z
" clip-path="url(#pf66728b48c)" style="fill: #f7f7ff; opacity: 0.75; stroke: #f7f7ff; stroke-width: 1.5; stroke-linejoin: miter"/>
   </g>
   <g id="patch_8">
    <path d="M 1118.175227 466.074635 
L 1209.604773 466.074635 
L 1209.604773 36.303437 
L 1118.175227 36.303437 
z
" clip-path="url(#pf66728b48c)" style="fill: #f6fff4; opacity: 0.75; stroke: #f6fff4; stroke-width: 1.5; stroke-linejoin: miter"/>
   </g>
   <g id="matplotlib.axis_1">
    <g id="xtick_1">
     <g id="line2d_1">
      <path d="M 158.165 466.074635 
L 158.165 36.303437 
" clip-path="url(#pf66728b48c)" style="fill: none; stroke: #cccccc; stroke-width: 1.5; stroke-linecap: round"/>
     </g>
     <g id="text_1">
      <!-- XLM-RoBERTa -->
      <g style="fill: #262626" transform="translate(47.810086 534.742904) rotate(-24) scale(0.165 -0.165)">
       <defs>
        <path id="ArialMT-58" d="M 28 0 
L 1800 2388 
L 238 4581 
L 959 4581 
L 1791 3406 
Q 2050 3041 2159 2844 
Q 2313 3094 2522 3366 
L 3444 4581 
L 4103 4581 
L 2494 2422 
L 4228 0 
L 3478 0 
L 2325 1634 
Q 2228 1775 2125 1941 
Q 1972 1691 1906 1597 
L 756 0 
L 28 0 
z
" transform="scale(0.015625)"/>
        <path id="ArialMT-4c" d="M 469 0 
L 469 4581 
L 1075 4581 
L 1075 541 
L 3331 541 
L 3331 0 
L 469 0 
z
" transform="scale(0.015625)"/>
        <path id="ArialMT-4d" d="M 475 0 
L 475 4581 
L 1388 4581 
L 2472 1338 
Q 2622 884 2691 659 
Q 2769 909 2934 1394 
L 4031 4581 
L 4847 4581 
L 4847 0 
L 4263 0 
L 4263 3834 
L 2931 0 
L 2384 0 
L 1059 3900 
L 1059 0 
L 475 0 
z
" transform="scale(0.015625)"/>
        <path id="ArialMT-2d" d="M 203 1375 
L 203 1941 
L 1931 1941 
L 1931 1375 
L 203 1375 
z
" transform="scale(0.015625)"/>
        <path id="ArialMT-52" d="M 503 0 
L 503 4581 
L 2534 4581 
Q 3147 4581 3465 4457 
Q 3784 4334 3975 4021 
Q 4166 3709 4166 3331 
Q 4166 2844 3850 2509 
Q 3534 2175 2875 2084 
Q 3116 1969 3241 1856 
Q 3506 1613 3744 1247 
L 4541 0 
L 3778 0 
L 3172 953 
Q 2906 1366 2734 1584 
Q 2563 1803 2427 1890 
Q 2291 1978 2150 2013 
Q 2047 2034 1813 2034 
L 1109 2034 
L 1109 0 
L 503 0 
z
M 1109 2559 
L 2413 2559 
Q 2828 2559 3062 2645 
Q 3297 2731 3419 2920 
Q 3541 3109 3541 3331 
Q 3541 3656 3305 3865 
Q 3069 4075 2559 4075 
L 1109 4075 
L 1109 2559 
z
" transform="scale(0.015625)"/>
        <path id="ArialMT-6f" d="M 213 1659 
Q 213 2581 725 3025 
Q 1153 3394 1769 3394 
Q 2453 3394 2887 2945 
Q 3322 2497 3322 1706 
Q 3322 1066 3130 698 
Q 2938 331 2570 128 
Q 2203 -75 1769 -75 
Q 1072 -75 642 372 
Q 213 819 213 1659 
z
M 791 1659 
Q 791 1022 1069 705 
Q 1347 388 1769 388 
Q 2188 388 2466 706 
Q 2744 1025 2744 1678 
Q 2744 2294 2464 2611 
Q 2184 2928 1769 2928 
Q 1347 2928 1069 2612 
Q 791 2297 791 1659 
z
" transform="scale(0.015625)"/>
        <path id="ArialMT-42" d="M 469 0 
L 469 4581 
L 2188 4581 
Q 2713 4581 3030 4442 
Q 3347 4303 3526 4014 
Q 3706 3725 3706 3409 
Q 3706 3116 3547 2856 
Q 3388 2597 3066 2438 
Q 3481 2316 3704 2022 
Q 3928 1728 3928 1328 
Q 3928 1006 3792 729 
Q 3656 453 3456 303 
Q 3256 153 2954 76 
Q 2653 0 2216 0 
L 469 0 
z
M 1075 2656 
L 2066 2656 
Q 2469 2656 2644 2709 
Q 2875 2778 2992 2937 
Q 3109 3097 3109 3338 
Q 3109 3566 3000 3739 
Q 2891 3913 2687 3977 
Q 2484 4041 1991 4041 
L 1075 4041 
L 1075 2656 
z
M 1075 541 
L 2216 541 
Q 2509 541 2628 563 
Q 2838 600 2978 687 
Q 3119 775 3209 942 
Q 3300 1109 3300 1328 
Q 3300 1584 3169 1773 
Q 3038 1963 2805 2039 
Q 2572 2116 2134 2116 
L 1075 2116 
L 1075 541 
z
" transform="scale(0.015625)"/>
        <path id="ArialMT-45" d="M 506 0 
L 506 4581 
L 3819 4581 
L 3819 4041 
L 1113 4041 
L 1113 2638 
L 3647 2638 
L 3647 2100 
L 1113 2100 
L 1113 541 
L 3925 541 
L 3925 0 
L 506 0 
z
" transform="scale(0.015625)"/>
        <path id="ArialMT-54" d="M 1659 0 
L 1659 4041 
L 150 4041 
L 150 4581 
L 3781 4581 
L 3781 4041 
L 2266 4041 
L 2266 0 
L 1659 0 
z
" transform="scale(0.015625)"/>
        <path id="ArialMT-61" d="M 2588 409 
Q 2275 144 1986 34 
Q 1697 -75 1366 -75 
Q 819 -75 525 192 
Q 231 459 231 875 
Q 231 1119 342 1320 
Q 453 1522 633 1644 
Q 813 1766 1038 1828 
Q 1203 1872 1538 1913 
Q 2219 1994 2541 2106 
Q 2544 2222 2544 2253 
Q 2544 2597 2384 2738 
Q 2169 2928 1744 2928 
Q 1347 2928 1158 2789 
Q 969 2650 878 2297 
L 328 2372 
Q 403 2725 575 2942 
Q 747 3159 1072 3276 
Q 1397 3394 1825 3394 
Q 2250 3394 2515 3294 
Q 2781 3194 2906 3042 
Q 3031 2891 3081 2659 
Q 3109 2516 3109 2141 
L 3109 1391 
Q 3109 606 3145 398 
Q 3181 191 3288 0 
L 2700 0 
Q 2613 175 2588 409 
z
M 2541 1666 
Q 2234 1541 1622 1453 
Q 1275 1403 1131 1340 
Q 988 1278 909 1158 
Q 831 1038 831 891 
Q 831 666 1001 516 
Q 1172 366 1500 366 
Q 1825 366 2078 508 
Q 2331 650 2450 897 
Q 2541 1088 2541 1459 
L 2541 1666 
z
" transform="scale(0.015625)"/>
       </defs>
       <use xlink:href="#ArialMT-58"/>
       <use xlink:href="#ArialMT-4c" transform="translate(66.699219 0)"/>
       <use xlink:href="#ArialMT-4d" transform="translate(122.314453 0)"/>
       <use xlink:href="#ArialMT-2d" transform="translate(205.615234 0)"/>
       <use xlink:href="#ArialMT-52" transform="translate(238.916016 0)"/>
       <use xlink:href="#ArialMT-6f" transform="translate(311.132812 0)"/>
       <use xlink:href="#ArialMT-42" transform="translate(366.748047 0)"/>
       <use xlink:href="#ArialMT-45" transform="translate(433.447266 0)"/>
       <use xlink:href="#ArialMT-52" transform="translate(500.146484 0)"/>
       <use xlink:href="#ArialMT-54" transform="translate(570.613281 0)"/>
       <use xlink:href="#ArialMT-61" transform="translate(620.572266 0)"/>
      </g>
      <!-- FT -->
      <g style="fill: #262626" transform="translate(138.417936 513.505111) rotate(-24) scale(0.165 -0.165)">
       <defs>
        <path id="ArialMT-46" d="M 525 0 
L 525 4581 
L 3616 4581 
L 3616 4041 
L 1131 4041 
L 1131 2622 
L 3281 2622 
L 3281 2081 
L 1131 2081 
L 1131 0 
L 525 0 
z
" transform="scale(0.015625)"/>
       </defs>
       <use xlink:href="#ArialMT-46"/>
       <use xlink:href="#ArialMT-54" transform="translate(61.083984 0)"/>
      </g>
     </g>
    </g>
    <g id="xtick_2">
     <g id="line2d_2">
      <path d="M 249.594545 466.074635 
L 249.594545 36.303437 
" clip-path="url(#pf66728b48c)" style="fill: none; stroke: #cccccc; stroke-width: 1.5; stroke-linecap: round"/>
     </g>
     <g id="text_2">
      <!-- XLM-RoBERTa -->
      <g style="fill: #262626" transform="translate(139.239631 534.742904) rotate(-24) scale(0.165 -0.165)">
       <use xlink:href="#ArialMT-58"/>
       <use xlink:href="#ArialMT-4c" transform="translate(66.699219 0)"/>
       <use xlink:href="#ArialMT-4d" transform="translate(122.314453 0)"/>
       <use xlink:href="#ArialMT-2d" transform="translate(205.615234 0)"/>
       <use xlink:href="#ArialMT-52" transform="translate(238.916016 0)"/>
       <use xlink:href="#ArialMT-6f" transform="translate(311.132812 0)"/>
       <use xlink:href="#ArialMT-42" transform="translate(366.748047 0)"/>
       <use xlink:href="#ArialMT-45" transform="translate(433.447266 0)"/>
       <use xlink:href="#ArialMT-52" transform="translate(500.146484 0)"/>
       <use xlink:href="#ArialMT-54" transform="translate(570.613281 0)"/>
       <use xlink:href="#ArialMT-61" transform="translate(620.572266 0)"/>
      </g>
      <!-- LoRA -->
      <g style="fill: #262626" transform="translate(210.555756 522.09434) rotate(-24) scale(0.165 -0.165)">
       <defs>
        <path id="ArialMT-41" d="M -9 0 
L 1750 4581 
L 2403 4581 
L 4278 0 
L 3588 0 
L 3053 1388 
L 1138 1388 
L 634 0 
L -9 0 
z
M 1313 1881 
L 2866 1881 
L 2388 3150 
Q 2169 3728 2063 4100 
Q 1975 3659 1816 3225 
L 1313 1881 
z
" transform="scale(0.015625)"/>
       </defs>
       <use xlink:href="#ArialMT-4c"/>
       <use xlink:href="#ArialMT-6f" transform="translate(55.615234 0)"/>
       <use xlink:href="#ArialMT-52" transform="translate(111.230469 0)"/>
       <use xlink:href="#ArialMT-41" transform="translate(183.447266 0)"/>
      </g>
     </g>
    </g>
    <g id="xtick_3">
     <g id="line2d_3">
      <path d="M 341.024091 466.074635 
L 341.024091 36.303437 
" clip-path="url(#pf66728b48c)" style="fill: none; stroke: #cccccc; stroke-width: 1.5; stroke-linecap: round"/>
     </g>
     <g id="text_3">
      <!-- XLM-RoBERTa -->
      <g style="fill: #262626" transform="translate(230.669177 534.742904) rotate(-24) scale(0.165 -0.165)">
       <use xlink:href="#ArialMT-58"/>
       <use xlink:href="#ArialMT-4c" transform="translate(66.699219 0)"/>
       <use xlink:href="#ArialMT-4d" transform="translate(122.314453 0)"/>
       <use xlink:href="#ArialMT-2d" transform="translate(205.615234 0)"/>
       <use xlink:href="#ArialMT-52" transform="translate(238.916016 0)"/>
       <use xlink:href="#ArialMT-6f" transform="translate(311.132812 0)"/>
       <use xlink:href="#ArialMT-42" transform="translate(366.748047 0)"/>
       <use xlink:href="#ArialMT-45" transform="translate(433.447266 0)"/>
       <use xlink:href="#ArialMT-52" transform="translate(500.146484 0)"/>
       <use xlink:href="#ArialMT-54" transform="translate(570.613281 0)"/>
       <use xlink:href="#ArialMT-61" transform="translate(620.572266 0)"/>
      </g>
      <!-- CV -->
      <g style="fill: #262626" transform="translate(318.74986 514.630278) rotate(-24) scale(0.165 -0.165)">
       <defs>
        <path id="ArialMT-43" d="M 3763 1606 
L 4369 1453 
Q 4178 706 3683 314 
Q 3188 -78 2472 -78 
Q 1731 -78 1267 223 
Q 803 525 561 1097 
Q 319 1669 319 2325 
Q 319 3041 592 3573 
Q 866 4106 1370 4382 
Q 1875 4659 2481 4659 
Q 3169 4659 3637 4309 
Q 4106 3959 4291 3325 
L 3694 3184 
Q 3534 3684 3231 3912 
Q 2928 4141 2469 4141 
Q 1941 4141 1586 3887 
Q 1231 3634 1087 3207 
Q 944 2781 944 2328 
Q 944 1744 1114 1308 
Q 1284 872 1643 656 
Q 2003 441 2422 441 
Q 2931 441 3284 734 
Q 3638 1028 3763 1606 
z
" transform="scale(0.015625)"/>
        <path id="ArialMT-56" d="M 1803 0 
L 28 4581 
L 684 4581 
L 1875 1253 
Q 2019 853 2116 503 
Q 2222 878 2363 1253 
L 3600 4581 
L 4219 4581 
L 2425 0 
L 1803 0 
z
" transform="scale(0.015625)"/>
       </defs>
       <use xlink:href="#ArialMT-43"/>
       <use xlink:href="#ArialMT-56" transform="translate(72.216797 0)"/>
      </g>
     </g>
    </g>
    <g id="xtick_4">
     <g id="line2d_4">
      <path d="M 432.453636 466.074635 
L 432.453636 36.303437 
" clip-path="url(#pf66728b48c)" style="fill: none; stroke: #cccccc; stroke-width: 1.5; stroke-linecap: round"/>
     </g>
     <g id="text_4">
      <!-- mBERT -->
      <g style="fill: #262626" transform="translate(371.528026 512.73556) rotate(-24) scale(0.165 -0.165)">
       <defs>
        <path id="ArialMT-6d" d="M 422 0 
L 422 3319 
L 925 3319 
L 925 2853 
Q 1081 3097 1340 3245 
Q 1600 3394 1931 3394 
Q 2300 3394 2536 3241 
Q 2772 3088 2869 2813 
Q 3263 3394 3894 3394 
Q 4388 3394 4653 3120 
Q 4919 2847 4919 2278 
L 4919 0 
L 4359 0 
L 4359 2091 
Q 4359 2428 4304 2576 
Q 4250 2725 4106 2815 
Q 3963 2906 3769 2906 
Q 3419 2906 3187 2673 
Q 2956 2441 2956 1928 
L 2956 0 
L 2394 0 
L 2394 2156 
Q 2394 2531 2256 2718 
Q 2119 2906 1806 2906 
Q 1569 2906 1367 2781 
Q 1166 2656 1075 2415 
Q 984 2175 984 1722 
L 984 0 
L 422 0 
z
" transform="scale(0.015625)"/>
       </defs>
       <use xlink:href="#ArialMT-6d"/>
       <use xlink:href="#ArialMT-42" transform="translate(83.300781 0)"/>
       <use xlink:href="#ArialMT-45" transform="translate(150 0)"/>
       <use xlink:href="#ArialMT-52" transform="translate(216.699219 0)"/>
       <use xlink:href="#ArialMT-54" transform="translate(287.166016 0)"/>
      </g>
      <!-- FT -->
      <g style="fill: #262626" transform="translate(412.706572 513.505111) rotate(-24) scale(0.165 -0.165)">
       <use xlink:href="#ArialMT-46"/>
       <use xlink:href="#ArialMT-54" transform="translate(61.083984 0)"/>
      </g>
     </g>
    </g>
    <g id="xtick_5">
     <g id="line2d_5">
      <path d="M 523.883182 466.074635 
L 523.883182 36.303437 
" clip-path="url(#pf66728b48c)" style="fill: none; stroke: #cccccc; stroke-width: 1.5; stroke-linecap: round"/>
     </g>
     <g id="text_5">
      <!-- mBERT -->
      <g style="fill: #262626" transform="translate(462.957572 512.73556) rotate(-24) scale(0.165 -0.165)">
       <use xlink:href="#ArialMT-6d"/>
       <use xlink:href="#ArialMT-42" transform="translate(83.300781 0)"/>
       <use xlink:href="#ArialMT-45" transform="translate(150 0)"/>
       <use xlink:href="#ArialMT-52" transform="translate(216.699219 0)"/>
       <use xlink:href="#ArialMT-54" transform="translate(287.166016 0)"/>
      </g>
      <!-- LoRA -->
      <g style="fill: #262626" transform="translate(484.844393 522.09434) rotate(-24) scale(0.165 -0.165)">
       <use xlink:href="#ArialMT-4c"/>
       <use xlink:href="#ArialMT-6f" transform="translate(55.615234 0)"/>
       <use xlink:href="#ArialMT-52" transform="translate(111.230469 0)"/>
       <use xlink:href="#ArialMT-41" transform="translate(183.447266 0)"/>
      </g>
     </g>
    </g>
    <g id="xtick_6">
     <g id="line2d_6">
      <path d="M 615.312727 466.074635 
L 615.312727 36.303437 
" clip-path="url(#pf66728b48c)" style="fill: none; stroke: #cccccc; stroke-width: 1.5; stroke-linecap: round"/>
     </g>
     <g id="text_6">
      <!-- mBERT -->
      <g style="fill: #262626" transform="translate(554.387117 512.73556) rotate(-24) scale(0.165 -0.165)">
       <use xlink:href="#ArialMT-6d"/>
       <use xlink:href="#ArialMT-42" transform="translate(83.300781 0)"/>
       <use xlink:href="#ArialMT-45" transform="translate(150 0)"/>
       <use xlink:href="#ArialMT-52" transform="translate(216.699219 0)"/>
       <use xlink:href="#ArialMT-54" transform="translate(287.166016 0)"/>
      </g>
      <!-- CV -->
      <g style="fill: #262626" transform="translate(593.038496 514.630278) rotate(-24) scale(0.165 -0.165)">
       <use xlink:href="#ArialMT-43"/>
       <use xlink:href="#ArialMT-56" transform="translate(72.216797 0)"/>
      </g>
     </g>
    </g>
    <g id="xtick_7">
     <g id="line2d_7">
      <path d="M 706.742273 466.074635 
L 706.742273 36.303437 
" clip-path="url(#pf66728b48c)" style="fill: none; stroke: #cccccc; stroke-width: 1.5; stroke-linecap: round"/>
     </g>
     <g id="text_7">
      <!-- mBERT-Lao -->
      <g style="fill: #262626" transform="translate(616.479863 525.797144) rotate(-24) scale(0.165 -0.165)">
       <use xlink:href="#ArialMT-6d"/>
       <use xlink:href="#ArialMT-42" transform="translate(83.300781 0)"/>
       <use xlink:href="#ArialMT-45" transform="translate(150 0)"/>
       <use xlink:href="#ArialMT-52" transform="translate(216.699219 0)"/>
       <use xlink:href="#ArialMT-54" transform="translate(287.166016 0)"/>
       <use xlink:href="#ArialMT-2d" transform="translate(342.75 0)"/>
       <use xlink:href="#ArialMT-4c" transform="translate(376.050781 0)"/>
       <use xlink:href="#ArialMT-61" transform="translate(431.666016 0)"/>
       <use xlink:href="#ArialMT-6f" transform="translate(487.28125 0)"/>
      </g>
      <!-- FT -->
      <g style="fill: #262626" transform="translate(686.995208 513.505111) rotate(-24) scale(0.165 -0.165)">
       <use xlink:href="#ArialMT-46"/>
       <use xlink:href="#ArialMT-54" transform="translate(61.083984 0)"/>
      </g>
     </g>
    </g>
    <g id="xtick_8">
     <g id="line2d_8">
      <path d="M 798.171818 466.074635 
L 798.171818 36.303437 
" clip-path="url(#pf66728b48c)" style="fill: none; stroke: #cccccc; stroke-width: 1.5; stroke-linecap: round"/>
     </g>
     <g id="text_8">
      <!-- mBERT-Lao -->
      <g style="fill: #262626" transform="translate(707.909408 525.797144) rotate(-24) scale(0.165 -0.165)">
       <use xlink:href="#ArialMT-6d"/>
       <use xlink:href="#ArialMT-42" transform="translate(83.300781 0)"/>
       <use xlink:href="#ArialMT-45" transform="translate(150 0)"/>
       <use xlink:href="#ArialMT-52" transform="translate(216.699219 0)"/>
       <use xlink:href="#ArialMT-54" transform="translate(287.166016 0)"/>
       <use xlink:href="#ArialMT-2d" transform="translate(342.75 0)"/>
       <use xlink:href="#ArialMT-4c" transform="translate(376.050781 0)"/>
       <use xlink:href="#ArialMT-61" transform="translate(431.666016 0)"/>
       <use xlink:href="#ArialMT-6f" transform="translate(487.28125 0)"/>
      </g>
      <!-- LoRA -->
      <g style="fill: #262626" transform="translate(759.133029 522.09434) rotate(-24) scale(0.165 -0.165)">
       <use xlink:href="#ArialMT-4c"/>
       <use xlink:href="#ArialMT-6f" transform="translate(55.615234 0)"/>
       <use xlink:href="#ArialMT-52" transform="translate(111.230469 0)"/>
       <use xlink:href="#ArialMT-41" transform="translate(183.447266 0)"/>
      </g>
     </g>
    </g>
    <g id="xtick_9">
     <g id="line2d_9">
      <path d="M 889.601364 466.074635 
L 889.601364 36.303437 
" clip-path="url(#pf66728b48c)" style="fill: none; stroke: #cccccc; stroke-width: 1.5; stroke-linecap: round"/>
     </g>
     <g id="text_9">
      <!-- mBERT-Lao -->
      <g style="fill: #262626" transform="translate(799.338954 525.797144) rotate(-24) scale(0.165 -0.165)">
       <use xlink:href="#ArialMT-6d"/>
       <use xlink:href="#ArialMT-42" transform="translate(83.300781 0)"/>
       <use xlink:href="#ArialMT-45" transform="translate(150 0)"/>
       <use xlink:href="#ArialMT-52" transform="translate(216.699219 0)"/>
       <use xlink:href="#ArialMT-54" transform="translate(287.166016 0)"/>
       <use xlink:href="#ArialMT-2d" transform="translate(342.75 0)"/>
       <use xlink:href="#ArialMT-4c" transform="translate(376.050781 0)"/>
       <use xlink:href="#ArialMT-61" transform="translate(431.666016 0)"/>
       <use xlink:href="#ArialMT-6f" transform="translate(487.28125 0)"/>
      </g>
      <!-- CV -->
      <g style="fill: #262626" transform="translate(867.327133 514.630278) rotate(-24) scale(0.165 -0.165)">
       <use xlink:href="#ArialMT-43"/>
       <use xlink:href="#ArialMT-56" transform="translate(72.216797 0)"/>
      </g>
     </g>
    </g>
    <g id="xtick_10">
     <g id="line2d_10">
      <path d="M 981.030909 466.074635 
L 981.030909 36.303437 
" clip-path="url(#pf66728b48c)" style="fill: none; stroke: #cccccc; stroke-width: 1.5; stroke-linecap: round"/>
     </g>
     <g id="text_10">
      <!-- Logistic Regression -->
      <g style="fill: #262626" transform="translate(840.987342 547.926128) rotate(-24) scale(0.165 -0.165)">
       <defs>
        <path id="ArialMT-67" d="M 319 -275 
L 866 -356 
Q 900 -609 1056 -725 
Q 1266 -881 1628 -881 
Q 2019 -881 2231 -725 
Q 2444 -569 2519 -288 
Q 2563 -116 2559 434 
Q 2191 0 1641 0 
Q 956 0 581 494 
Q 206 988 206 1678 
Q 206 2153 378 2554 
Q 550 2956 876 3175 
Q 1203 3394 1644 3394 
Q 2231 3394 2613 2919 
L 2613 3319 
L 3131 3319 
L 3131 450 
Q 3131 -325 2973 -648 
Q 2816 -972 2473 -1159 
Q 2131 -1347 1631 -1347 
Q 1038 -1347 672 -1080 
Q 306 -813 319 -275 
z
M 784 1719 
Q 784 1066 1043 766 
Q 1303 466 1694 466 
Q 2081 466 2343 764 
Q 2606 1063 2606 1700 
Q 2606 2309 2336 2618 
Q 2066 2928 1684 2928 
Q 1309 2928 1046 2623 
Q 784 2319 784 1719 
z
" transform="scale(0.015625)"/>
        <path id="ArialMT-69" d="M 425 3934 
L 425 4581 
L 988 4581 
L 988 3934 
L 425 3934 
z
M 425 0 
L 425 3319 
L 988 3319 
L 988 0 
L 425 0 
z
" transform="scale(0.015625)"/>
        <path id="ArialMT-73" d="M 197 991 
L 753 1078 
Q 800 744 1014 566 
Q 1228 388 1613 388 
Q 2000 388 2187 545 
Q 2375 703 2375 916 
Q 2375 1106 2209 1216 
Q 2094 1291 1634 1406 
Q 1016 1563 777 1677 
Q 538 1791 414 1992 
Q 291 2194 291 2438 
Q 291 2659 392 2848 
Q 494 3038 669 3163 
Q 800 3259 1026 3326 
Q 1253 3394 1513 3394 
Q 1903 3394 2198 3281 
Q 2494 3169 2634 2976 
Q 2775 2784 2828 2463 
L 2278 2388 
Q 2241 2644 2061 2787 
Q 1881 2931 1553 2931 
Q 1166 2931 1000 2803 
Q 834 2675 834 2503 
Q 834 2394 903 2306 
Q 972 2216 1119 2156 
Q 1203 2125 1616 2013 
Q 2213 1853 2448 1751 
Q 2684 1650 2818 1456 
Q 2953 1263 2953 975 
Q 2953 694 2789 445 
Q 2625 197 2315 61 
Q 2006 -75 1616 -75 
Q 969 -75 630 194 
Q 291 463 197 991 
z
" transform="scale(0.015625)"/>
        <path id="ArialMT-74" d="M 1650 503 
L 1731 6 
Q 1494 -44 1306 -44 
Q 1000 -44 831 53 
Q 663 150 594 308 
Q 525 466 525 972 
L 525 2881 
L 113 2881 
L 113 3319 
L 525 3319 
L 525 4141 
L 1084 4478 
L 1084 3319 
L 1650 3319 
L 1650 2881 
L 1084 2881 
L 1084 941 
Q 1084 700 1114 631 
Q 1144 563 1211 522 
Q 1278 481 1403 481 
Q 1497 481 1650 503 
z
" transform="scale(0.015625)"/>
        <path id="ArialMT-63" d="M 2588 1216 
L 3141 1144 
Q 3050 572 2676 248 
Q 2303 -75 1759 -75 
Q 1078 -75 664 370 
Q 250 816 250 1647 
Q 250 2184 428 2587 
Q 606 2991 970 3192 
Q 1334 3394 1763 3394 
Q 2303 3394 2647 3120 
Q 2991 2847 3088 2344 
L 2541 2259 
Q 2463 2594 2264 2762 
Q 2066 2931 1784 2931 
Q 1359 2931 1093 2626 
Q 828 2322 828 1663 
Q 828 994 1084 691 
Q 1341 388 1753 388 
Q 2084 388 2306 591 
Q 2528 794 2588 1216 
z
" transform="scale(0.015625)"/>
        <path id="ArialMT-20" transform="scale(0.015625)"/>
        <path id="ArialMT-65" d="M 2694 1069 
L 3275 997 
Q 3138 488 2766 206 
Q 2394 -75 1816 -75 
Q 1088 -75 661 373 
Q 234 822 234 1631 
Q 234 2469 665 2931 
Q 1097 3394 1784 3394 
Q 2450 3394 2872 2941 
Q 3294 2488 3294 1666 
Q 3294 1616 3291 1516 
L 816 1516 
Q 847 969 1125 678 
Q 1403 388 1819 388 
Q 2128 388 2347 550 
Q 2566 713 2694 1069 
z
M 847 1978 
L 2700 1978 
Q 2663 2397 2488 2606 
Q 2219 2931 1791 2931 
Q 1403 2931 1139 2672 
Q 875 2413 847 1978 
z
" transform="scale(0.015625)"/>
        <path id="ArialMT-72" d="M 416 0 
L 416 3319 
L 922 3319 
L 922 2816 
Q 1116 3169 1280 3281 
Q 1444 3394 1641 3394 
Q 1925 3394 2219 3213 
L 2025 2691 
Q 1819 2813 1613 2813 
Q 1428 2813 1281 2702 
Q 1134 2591 1072 2394 
Q 978 2094 978 1738 
L 978 0 
L 416 0 
z
" transform="scale(0.015625)"/>
        <path id="ArialMT-6e" d="M 422 0 
L 422 3319 
L 928 3319 
L 928 2847 
Q 1294 3394 1984 3394 
Q 2284 3394 2536 3286 
Q 2788 3178 2913 3003 
Q 3038 2828 3088 2588 
Q 3119 2431 3119 2041 
L 3119 0 
L 2556 0 
L 2556 2019 
Q 2556 2363 2490 2533 
Q 2425 2703 2258 2804 
Q 2091 2906 1866 2906 
Q 1506 2906 1245 2678 
Q 984 2450 984 1813 
L 984 0 
L 422 0 
z
" transform="scale(0.015625)"/>
       </defs>
       <use xlink:href="#ArialMT-4c"/>
       <use xlink:href="#ArialMT-6f" transform="translate(55.615234 0)"/>
       <use xlink:href="#ArialMT-67" transform="translate(111.230469 0)"/>
       <use xlink:href="#ArialMT-69" transform="translate(166.845703 0)"/>
       <use xlink:href="#ArialMT-73" transform="translate(189.0625 0)"/>
       <use xlink:href="#ArialMT-74" transform="translate(239.0625 0)"/>
       <use xlink:href="#ArialMT-69" transform="translate(266.845703 0)"/>
       <use xlink:href="#ArialMT-63" transform="translate(289.0625 0)"/>
       <use xlink:href="#ArialMT-20" transform="translate(339.0625 0)"/>
       <use xlink:href="#ArialMT-52" transform="translate(366.845703 0)"/>
       <use xlink:href="#ArialMT-65" transform="translate(439.0625 0)"/>
       <use xlink:href="#ArialMT-67" transform="translate(494.677734 0)"/>
       <use xlink:href="#ArialMT-72" transform="translate(550.292969 0)"/>
       <use xlink:href="#ArialMT-65" transform="translate(583.59375 0)"/>
       <use xlink:href="#ArialMT-73" transform="translate(639.208984 0)"/>
       <use xlink:href="#ArialMT-73" transform="translate(689.208984 0)"/>
       <use xlink:href="#ArialMT-69" transform="translate(739.208984 0)"/>
       <use xlink:href="#ArialMT-6f" transform="translate(761.425781 0)"/>
       <use xlink:href="#ArialMT-6e" transform="translate(817.041016 0)"/>
      </g>
      <!-- Base -->
      <g style="fill: #262626" transform="translate(945.341263 520.779848) rotate(-24) scale(0.165 -0.165)">
       <use xlink:href="#ArialMT-42"/>
       <use xlink:href="#ArialMT-61" transform="translate(66.699219 0)"/>
       <use xlink:href="#ArialMT-73" transform="translate(122.314453 0)"/>
       <use xlink:href="#ArialMT-65" transform="translate(172.314453 0)"/>
      </g>
     </g>
    </g>
    <g id="xtick_11">
     <g id="line2d_11">
      <path d="M 1072.460455 466.074635 
L 1072.460455 36.303437 
" clip-path="url(#pf66728b48c)" style="fill: none; stroke: #cccccc; stroke-width: 1.5; stroke-linecap: round"/>
     </g>
     <g id="text_11">
      <!-- SVM -->
      <g style="fill: #262626" transform="translate(1031.363563 503.907245) rotate(-24) scale(0.165 -0.165)">
       <defs>
        <path id="ArialMT-53" d="M 288 1472 
L 859 1522 
Q 900 1178 1048 958 
Q 1197 738 1509 602 
Q 1822 466 2213 466 
Q 2559 466 2825 569 
Q 3091 672 3220 851 
Q 3350 1031 3350 1244 
Q 3350 1459 3225 1620 
Q 3100 1781 2813 1891 
Q 2628 1963 1997 2114 
Q 1366 2266 1113 2400 
Q 784 2572 623 2826 
Q 463 3081 463 3397 
Q 463 3744 659 4045 
Q 856 4347 1234 4503 
Q 1613 4659 2075 4659 
Q 2584 4659 2973 4495 
Q 3363 4331 3572 4012 
Q 3781 3694 3797 3291 
L 3216 3247 
Q 3169 3681 2898 3903 
Q 2628 4125 2100 4125 
Q 1550 4125 1298 3923 
Q 1047 3722 1047 3438 
Q 1047 3191 1225 3031 
Q 1400 2872 2139 2705 
Q 2878 2538 3153 2413 
Q 3553 2228 3743 1945 
Q 3934 1663 3934 1294 
Q 3934 928 3725 604 
Q 3516 281 3123 101 
Q 2731 -78 2241 -78 
Q 1619 -78 1198 103 
Q 778 284 539 648 
Q 300 1013 288 1472 
z
" transform="scale(0.015625)"/>
       </defs>
       <use xlink:href="#ArialMT-53"/>
       <use xlink:href="#ArialMT-56" transform="translate(66.699219 0)"/>
       <use xlink:href="#ArialMT-4d" transform="translate(133.398438 0)"/>
      </g>
      <!-- Base -->
      <g style="fill: #262626" transform="translate(1036.770809 520.603206) rotate(-24) scale(0.165 -0.165)">
       <use xlink:href="#ArialMT-42"/>
       <use xlink:href="#ArialMT-61" transform="translate(66.699219 0)"/>
       <use xlink:href="#ArialMT-73" transform="translate(122.314453 0)"/>
       <use xlink:href="#ArialMT-65" transform="translate(172.314453 0)"/>
      </g>
     </g>
    </g>
    <g id="xtick_12">
     <g id="line2d_12">
      <path d="M 1163.89 466.074635 
L 1163.89 36.303437 
" clip-path="url(#pf66728b48c)" style="fill: none; stroke: #cccccc; stroke-width: 1.5; stroke-linecap: round"/>
     </g>
     <g id="text_12">
      <!-- Decision Tree -->
      <g style="fill: #262626" transform="translate(1063.304598 530.393237) rotate(-24) scale(0.165 -0.165)">
       <defs>
        <path id="ArialMT-44" d="M 494 0 
L 494 4581 
L 2072 4581 
Q 2606 4581 2888 4516 
Q 3281 4425 3559 4188 
Q 3922 3881 4101 3404 
Q 4281 2928 4281 2316 
Q 4281 1794 4159 1391 
Q 4038 988 3847 723 
Q 3656 459 3429 307 
Q 3203 156 2883 78 
Q 2563 0 2147 0 
L 494 0 
z
M 1100 541 
L 2078 541 
Q 2531 541 2789 625 
Q 3047 709 3200 863 
Q 3416 1078 3536 1442 
Q 3656 1806 3656 2325 
Q 3656 3044 3420 3430 
Q 3184 3816 2847 3947 
Q 2603 4041 2063 4041 
L 1100 4041 
L 1100 541 
z
" transform="scale(0.015625)"/>
       </defs>
       <use xlink:href="#ArialMT-44"/>
       <use xlink:href="#ArialMT-65" transform="translate(72.216797 0)"/>
       <use xlink:href="#ArialMT-63" transform="translate(127.832031 0)"/>
       <use xlink:href="#ArialMT-69" transform="translate(177.832031 0)"/>
       <use xlink:href="#ArialMT-73" transform="translate(200.048828 0)"/>
       <use xlink:href="#ArialMT-69" transform="translate(250.048828 0)"/>
       <use xlink:href="#ArialMT-6f" transform="translate(272.265625 0)"/>
       <use xlink:href="#ArialMT-6e" transform="translate(327.880859 0)"/>
       <use xlink:href="#ArialMT-20" transform="translate(383.496094 0)"/>
       <use xlink:href="#ArialMT-54" transform="translate(409.529297 0)"/>
       <use xlink:href="#ArialMT-72" transform="translate(466.863281 0)"/>
       <use xlink:href="#ArialMT-65" transform="translate(500.164062 0)"/>
       <use xlink:href="#ArialMT-65" transform="translate(555.779297 0)"/>
      </g>
      <!-- Base -->
      <g style="fill: #262626" transform="translate(1128.200354 520.603206) rotate(-24) scale(0.165 -0.165)">
       <use xlink:href="#ArialMT-42"/>
       <use xlink:href="#ArialMT-61" transform="translate(66.699219 0)"/>
       <use xlink:href="#ArialMT-73" transform="translate(122.314453 0)"/>
       <use xlink:href="#ArialMT-65" transform="translate(172.314453 0)"/>
      </g>
     </g>
    </g>
    <g id="text_13">
     <!-- Experiment Group (Model + Strategy) -->
     <g style="fill: #262626" transform="translate(554.849062 579.777306) scale(0.12 -0.12)">
      <defs>
       <path id="Arial-BoldMT-45" d="M 466 0 
L 466 4581 
L 3863 4581 
L 3863 3806 
L 1391 3806 
L 1391 2791 
L 3691 2791 
L 3691 2019 
L 1391 2019 
L 1391 772 
L 3950 772 
L 3950 0 
L 466 0 
z
" transform="scale(0.015625)"/>
       <path id="Arial-BoldMT-78" d="M 38 0 
L 1234 1709 
L 88 3319 
L 1159 3319 
L 1747 2406 
L 2366 3319 
L 3397 3319 
L 2272 1747 
L 3500 0 
L 2422 0 
L 1747 1028 
L 1066 0 
L 38 0 
z
" transform="scale(0.015625)"/>
       <path id="Arial-BoldMT-70" d="M 434 3319 
L 1253 3319 
L 1253 2831 
Q 1413 3081 1684 3237 
Q 1956 3394 2288 3394 
Q 2866 3394 3269 2941 
Q 3672 2488 3672 1678 
Q 3672 847 3265 386 
Q 2859 -75 2281 -75 
Q 2006 -75 1782 34 
Q 1559 144 1313 409 
L 1313 -1263 
L 434 -1263 
L 434 3319 
z
M 1303 1716 
Q 1303 1156 1525 889 
Q 1747 622 2066 622 
Q 2372 622 2575 867 
Q 2778 1113 2778 1672 
Q 2778 2194 2568 2447 
Q 2359 2700 2050 2700 
Q 1728 2700 1515 2451 
Q 1303 2203 1303 1716 
z
" transform="scale(0.015625)"/>
       <path id="Arial-BoldMT-65" d="M 2381 1056 
L 3256 909 
Q 3088 428 2723 176 
Q 2359 -75 1813 -75 
Q 947 -75 531 491 
Q 203 944 203 1634 
Q 203 2459 634 2926 
Q 1066 3394 1725 3394 
Q 2466 3394 2894 2905 
Q 3322 2416 3303 1406 
L 1103 1406 
Q 1113 1016 1316 798 
Q 1519 581 1822 581 
Q 2028 581 2168 693 
Q 2309 806 2381 1056 
z
M 2431 1944 
Q 2422 2325 2234 2523 
Q 2047 2722 1778 2722 
Q 1491 2722 1303 2513 
Q 1116 2303 1119 1944 
L 2431 1944 
z
" transform="scale(0.015625)"/>
       <path id="Arial-BoldMT-72" d="M 1300 0 
L 422 0 
L 422 3319 
L 1238 3319 
L 1238 2847 
Q 1447 3181 1614 3287 
Q 1781 3394 1994 3394 
Q 2294 3394 2572 3228 
L 2300 2463 
Q 2078 2606 1888 2606 
Q 1703 2606 1575 2504 
Q 1447 2403 1373 2137 
Q 1300 1872 1300 1025 
L 1300 0 
z
" transform="scale(0.015625)"/>
       <path id="Arial-BoldMT-69" d="M 459 3769 
L 459 4581 
L 1338 4581 
L 1338 3769 
L 459 3769 
z
M 459 0 
L 459 3319 
L 1338 3319 
L 1338 0 
L 459 0 
z
" transform="scale(0.015625)"/>
       <path id="Arial-BoldMT-6d" d="M 394 3319 
L 1203 3319 
L 1203 2866 
Q 1638 3394 2238 3394 
Q 2556 3394 2790 3262 
Q 3025 3131 3175 2866 
Q 3394 3131 3647 3262 
Q 3900 3394 4188 3394 
Q 4553 3394 4806 3245 
Q 5059 3097 5184 2809 
Q 5275 2597 5275 2122 
L 5275 0 
L 4397 0 
L 4397 1897 
Q 4397 2391 4306 2534 
Q 4184 2722 3931 2722 
Q 3747 2722 3584 2609 
Q 3422 2497 3350 2280 
Q 3278 2063 3278 1594 
L 3278 0 
L 2400 0 
L 2400 1819 
Q 2400 2303 2353 2443 
Q 2306 2584 2207 2653 
Q 2109 2722 1941 2722 
Q 1738 2722 1575 2612 
Q 1413 2503 1342 2297 
Q 1272 2091 1272 1613 
L 1272 0 
L 394 0 
L 394 3319 
z
" transform="scale(0.015625)"/>
       <path id="Arial-BoldMT-6e" d="M 3478 0 
L 2600 0 
L 2600 1694 
Q 2600 2231 2544 2389 
Q 2488 2547 2361 2634 
Q 2234 2722 2056 2722 
Q 1828 2722 1647 2597 
Q 1466 2472 1398 2265 
Q 1331 2059 1331 1503 
L 1331 0 
L 453 0 
L 453 3319 
L 1269 3319 
L 1269 2831 
Q 1703 3394 2363 3394 
Q 2653 3394 2893 3289 
Q 3134 3184 3257 3021 
Q 3381 2859 3429 2653 
Q 3478 2447 3478 2063 
L 3478 0 
z
" transform="scale(0.015625)"/>
       <path id="Arial-BoldMT-74" d="M 1981 3319 
L 1981 2619 
L 1381 2619 
L 1381 1281 
Q 1381 875 1398 808 
Q 1416 741 1477 697 
Q 1538 653 1625 653 
Q 1747 653 1978 738 
L 2053 56 
Q 1747 -75 1359 -75 
Q 1122 -75 931 4 
Q 741 84 652 211 
Q 563 338 528 553 
Q 500 706 500 1172 
L 500 2619 
L 97 2619 
L 97 3319 
L 500 3319 
L 500 3978 
L 1381 4491 
L 1381 3319 
L 1981 3319 
z
" transform="scale(0.015625)"/>
       <path id="Arial-BoldMT-20" transform="scale(0.015625)"/>
       <path id="Arial-BoldMT-47" d="M 2597 1684 
L 2597 2456 
L 4591 2456 
L 4591 631 
Q 4300 350 3748 136 
Q 3197 -78 2631 -78 
Q 1913 -78 1378 223 
Q 844 525 575 1086 
Q 306 1647 306 2306 
Q 306 3022 606 3578 
Q 906 4134 1484 4431 
Q 1925 4659 2581 4659 
Q 3434 4659 3914 4301 
Q 4394 3944 4531 3313 
L 3613 3141 
Q 3516 3478 3248 3673 
Q 2981 3869 2581 3869 
Q 1975 3869 1617 3484 
Q 1259 3100 1259 2344 
Q 1259 1528 1621 1120 
Q 1984 713 2572 713 
Q 2863 713 3155 827 
Q 3447 941 3656 1103 
L 3656 1684 
L 2597 1684 
z
" transform="scale(0.015625)"/>
       <path id="Arial-BoldMT-6f" d="M 256 1706 
Q 256 2144 472 2553 
Q 688 2963 1083 3178 
Q 1478 3394 1966 3394 
Q 2719 3394 3200 2905 
Q 3681 2416 3681 1669 
Q 3681 916 3195 420 
Q 2709 -75 1972 -75 
Q 1516 -75 1102 131 
Q 688 338 472 736 
Q 256 1134 256 1706 
z
M 1156 1659 
Q 1156 1166 1390 903 
Q 1625 641 1969 641 
Q 2313 641 2545 903 
Q 2778 1166 2778 1666 
Q 2778 2153 2545 2415 
Q 2313 2678 1969 2678 
Q 1625 2678 1390 2415 
Q 1156 2153 1156 1659 
z
" transform="scale(0.015625)"/>
       <path id="Arial-BoldMT-75" d="M 2644 0 
L 2644 497 
Q 2463 231 2167 78 
Q 1872 -75 1544 -75 
Q 1209 -75 943 72 
Q 678 219 559 484 
Q 441 750 441 1219 
L 441 3319 
L 1319 3319 
L 1319 1794 
Q 1319 1094 1367 936 
Q 1416 778 1544 686 
Q 1672 594 1869 594 
Q 2094 594 2272 717 
Q 2450 841 2515 1023 
Q 2581 1206 2581 1919 
L 2581 3319 
L 3459 3319 
L 3459 0 
L 2644 0 
z
" transform="scale(0.015625)"/>
       <path id="Arial-BoldMT-28" d="M 1916 -1347 
L 1313 -1347 
Q 834 -625 584 153 
Q 334 931 334 1659 
Q 334 2563 644 3369 
Q 913 4069 1325 4659 
L 1925 4659 
Q 1497 3713 1336 3048 
Q 1175 2384 1175 1641 
Q 1175 1128 1270 590 
Q 1366 53 1531 -431 
Q 1641 -750 1916 -1347 
z
" transform="scale(0.015625)"/>
       <path id="Arial-BoldMT-4d" d="M 453 0 
L 453 4581 
L 1838 4581 
L 2669 1456 
L 3491 4581 
L 4878 4581 
L 4878 0 
L 4019 0 
L 4019 3606 
L 3109 0 
L 2219 0 
L 1313 3606 
L 1313 0 
L 453 0 
z
" transform="scale(0.015625)"/>
       <path id="Arial-BoldMT-64" d="M 3503 0 
L 2688 0 
L 2688 488 
Q 2484 203 2207 64 
Q 1931 -75 1650 -75 
Q 1078 -75 670 386 
Q 263 847 263 1672 
Q 263 2516 659 2955 
Q 1056 3394 1663 3394 
Q 2219 3394 2625 2931 
L 2625 4581 
L 3503 4581 
L 3503 0 
z
M 1159 1731 
Q 1159 1200 1306 963 
Q 1519 619 1900 619 
Q 2203 619 2415 876 
Q 2628 1134 2628 1647 
Q 2628 2219 2422 2470 
Q 2216 2722 1894 2722 
Q 1581 2722 1370 2473 
Q 1159 2225 1159 1731 
z
" transform="scale(0.015625)"/>
       <path id="Arial-BoldMT-6c" d="M 459 0 
L 459 4581 
L 1338 4581 
L 1338 0 
L 459 0 
z
" transform="scale(0.015625)"/>
       <path id="Arial-BoldMT-2b" d="M 1466 659 
L 1466 1850 
L 266 1850 
L 266 2672 
L 1466 2672 
L 1466 3863 
L 2266 3863 
L 2266 2672 
L 3469 2672 
L 3469 1850 
L 2266 1850 
L 2266 659 
L 1466 659 
z
" transform="scale(0.015625)"/>
       <path id="Arial-BoldMT-53" d="M 231 1491 
L 1131 1578 
Q 1213 1125 1461 912 
Q 1709 700 2131 700 
Q 2578 700 2804 889 
Q 3031 1078 3031 1331 
Q 3031 1494 2936 1608 
Q 2841 1722 2603 1806 
Q 2441 1863 1863 2006 
Q 1119 2191 819 2459 
Q 397 2838 397 3381 
Q 397 3731 595 4036 
Q 794 4341 1167 4500 
Q 1541 4659 2069 4659 
Q 2931 4659 3367 4281 
Q 3803 3903 3825 3272 
L 2900 3231 
Q 2841 3584 2645 3739 
Q 2450 3894 2059 3894 
Q 1656 3894 1428 3728 
Q 1281 3622 1281 3444 
Q 1281 3281 1419 3166 
Q 1594 3019 2269 2859 
Q 2944 2700 3267 2529 
Q 3591 2359 3773 2064 
Q 3956 1769 3956 1334 
Q 3956 941 3737 597 
Q 3519 253 3119 86 
Q 2719 -81 2122 -81 
Q 1253 -81 787 320 
Q 322 722 231 1491 
z
" transform="scale(0.015625)"/>
       <path id="Arial-BoldMT-61" d="M 1116 2306 
L 319 2450 
Q 453 2931 781 3162 
Q 1109 3394 1756 3394 
Q 2344 3394 2631 3255 
Q 2919 3116 3036 2902 
Q 3153 2688 3153 2116 
L 3144 1091 
Q 3144 653 3186 445 
Q 3228 238 3344 0 
L 2475 0 
Q 2441 88 2391 259 
Q 2369 338 2359 363 
Q 2134 144 1878 34 
Q 1622 -75 1331 -75 
Q 819 -75 523 203 
Q 228 481 228 906 
Q 228 1188 362 1408 
Q 497 1628 739 1745 
Q 981 1863 1438 1950 
Q 2053 2066 2291 2166 
L 2291 2253 
Q 2291 2506 2166 2614 
Q 2041 2722 1694 2722 
Q 1459 2722 1328 2630 
Q 1197 2538 1116 2306 
z
M 2291 1594 
Q 2122 1538 1756 1459 
Q 1391 1381 1278 1306 
Q 1106 1184 1106 997 
Q 1106 813 1243 678 
Q 1381 544 1594 544 
Q 1831 544 2047 700 
Q 2206 819 2256 991 
Q 2291 1103 2291 1419 
L 2291 1594 
z
" transform="scale(0.015625)"/>
       <path id="Arial-BoldMT-67" d="M 378 -219 
L 1381 -341 
Q 1406 -516 1497 -581 
Q 1622 -675 1891 -675 
Q 2234 -675 2406 -572 
Q 2522 -503 2581 -350 
Q 2622 -241 2622 53 
L 2622 538 
Q 2228 0 1628 0 
Q 959 0 569 566 
Q 263 1013 263 1678 
Q 263 2513 664 2953 
Q 1066 3394 1663 3394 
Q 2278 3394 2678 2853 
L 2678 3319 
L 3500 3319 
L 3500 341 
Q 3500 -247 3403 -537 
Q 3306 -828 3131 -993 
Q 2956 -1159 2664 -1253 
Q 2372 -1347 1925 -1347 
Q 1081 -1347 728 -1058 
Q 375 -769 375 -325 
Q 375 -281 378 -219 
z
M 1163 1728 
Q 1163 1200 1367 954 
Q 1572 709 1872 709 
Q 2194 709 2416 961 
Q 2638 1213 2638 1706 
Q 2638 2222 2425 2472 
Q 2213 2722 1888 2722 
Q 1572 2722 1367 2476 
Q 1163 2231 1163 1728 
z
" transform="scale(0.015625)"/>
       <path id="Arial-BoldMT-79" d="M 44 3319 
L 978 3319 
L 1772 963 
L 2547 3319 
L 3456 3319 
L 2284 125 
L 2075 -453 
Q 1959 -744 1854 -897 
Q 1750 -1050 1614 -1145 
Q 1478 -1241 1279 -1294 
Q 1081 -1347 831 -1347 
Q 578 -1347 334 -1294 
L 256 -606 
Q 463 -647 628 -647 
Q 934 -647 1081 -467 
Q 1228 -288 1306 -9 
L 44 3319 
z
" transform="scale(0.015625)"/>
       <path id="Arial-BoldMT-29" d="M 216 -1347 
Q 475 -791 581 -494 
Q 688 -197 778 190 
Q 869 578 912 926 
Q 956 1275 956 1641 
Q 956 2384 797 3048 
Q 638 3713 209 4659 
L 806 4659 
Q 1278 3988 1539 3234 
Q 1800 2481 1800 1706 
Q 1800 1053 1594 306 
Q 1359 -531 822 -1347 
L 216 -1347 
z
" transform="scale(0.015625)"/>
      </defs>
      <use xlink:href="#Arial-BoldMT-45"/>
      <use xlink:href="#Arial-BoldMT-78" transform="translate(66.699219 0)"/>
      <use xlink:href="#Arial-BoldMT-70" transform="translate(122.314453 0)"/>
      <use xlink:href="#Arial-BoldMT-65" transform="translate(183.398438 0)"/>
      <use xlink:href="#Arial-BoldMT-72" transform="translate(239.013672 0)"/>
      <use xlink:href="#Arial-BoldMT-69" transform="translate(277.929688 0)"/>
      <use xlink:href="#Arial-BoldMT-6d" transform="translate(305.712891 0)"/>
      <use xlink:href="#Arial-BoldMT-65" transform="translate(394.628906 0)"/>
      <use xlink:href="#Arial-BoldMT-6e" transform="translate(450.244141 0)"/>
      <use xlink:href="#Arial-BoldMT-74" transform="translate(511.328125 0)"/>
      <use xlink:href="#Arial-BoldMT-20" transform="translate(544.628906 0)"/>
      <use xlink:href="#Arial-BoldMT-47" transform="translate(572.412109 0)"/>
      <use xlink:href="#Arial-BoldMT-72" transform="translate(650.195312 0)"/>
      <use xlink:href="#Arial-BoldMT-6f" transform="translate(689.111328 0)"/>
      <use xlink:href="#Arial-BoldMT-75" transform="translate(750.195312 0)"/>
      <use xlink:href="#Arial-BoldMT-70" transform="translate(811.279297 0)"/>
      <use xlink:href="#Arial-BoldMT-20" transform="translate(872.363281 0)"/>
      <use xlink:href="#Arial-BoldMT-28" transform="translate(900.146484 0)"/>
      <use xlink:href="#Arial-BoldMT-4d" transform="translate(933.447266 0)"/>
      <use xlink:href="#Arial-BoldMT-6f" transform="translate(1016.748047 0)"/>
      <use xlink:href="#Arial-BoldMT-64" transform="translate(1077.832031 0)"/>
      <use xlink:href="#Arial-BoldMT-65" transform="translate(1138.916016 0)"/>
      <use xlink:href="#Arial-BoldMT-6c" transform="translate(1194.53125 0)"/>
      <use xlink:href="#Arial-BoldMT-20" transform="translate(1222.314453 0)"/>
      <use xlink:href="#Arial-BoldMT-2b" transform="translate(1250.097656 0)"/>
      <use xlink:href="#Arial-BoldMT-20" transform="translate(1308.496094 0)"/>
      <use xlink:href="#Arial-BoldMT-53" transform="translate(1336.279297 0)"/>
      <use xlink:href="#Arial-BoldMT-74" transform="translate(1402.978516 0)"/>
      <use xlink:href="#Arial-BoldMT-72" transform="translate(1436.279297 0)"/>
      <use xlink:href="#Arial-BoldMT-61" transform="translate(1475.195312 0)"/>
      <use xlink:href="#Arial-BoldMT-74" transform="translate(1530.810547 0)"/>
      <use xlink:href="#Arial-BoldMT-65" transform="translate(1564.111328 0)"/>
      <use xlink:href="#Arial-BoldMT-67" transform="translate(1619.726562 0)"/>
      <use xlink:href="#Arial-BoldMT-79" transform="translate(1680.810547 0)"/>
      <use xlink:href="#Arial-BoldMT-29" transform="translate(1736.425781 0)"/>
     </g>
    </g>
   </g>
   <g id="matplotlib.axis_2">
    <g id="ytick_1">
     <g id="line2d_13">
      <path d="M 57.5925 410.328125 
L 1264.4625 410.328125 
" clip-path="url(#pf66728b48c)" style="fill: none; stroke-dasharray: 5.55,2.4; stroke-dashoffset: 0; stroke: #cccccc; stroke-opacity: 0.35; stroke-width: 1.5"/>
     </g>
     <g id="text_14">
      <!-- 0.6 -->
      <g style="fill: #262626" transform="translate(22.1575 416.233321) scale(0.165 -0.165)">
       <defs>
        <path id="ArialMT-30" d="M 266 2259 
Q 266 3072 433 3567 
Q 600 4063 929 4331 
Q 1259 4600 1759 4600 
Q 2128 4600 2406 4451 
Q 2684 4303 2865 4023 
Q 3047 3744 3150 3342 
Q 3253 2941 3253 2259 
Q 3253 1453 3087 958 
Q 2922 463 2592 192 
Q 2263 -78 1759 -78 
Q 1097 -78 719 397 
Q 266 969 266 2259 
z
M 844 2259 
Q 844 1131 1108 757 
Q 1372 384 1759 384 
Q 2147 384 2411 759 
Q 2675 1134 2675 2259 
Q 2675 3391 2411 3762 
Q 2147 4134 1753 4134 
Q 1366 4134 1134 3806 
Q 844 3388 844 2259 
z
" transform="scale(0.015625)"/>
        <path id="ArialMT-2e" d="M 581 0 
L 581 641 
L 1222 641 
L 1222 0 
L 581 0 
z
" transform="scale(0.015625)"/>
        <path id="ArialMT-36" d="M 3184 3459 
L 2625 3416 
Q 2550 3747 2413 3897 
Q 2184 4138 1850 4138 
Q 1581 4138 1378 3988 
Q 1113 3794 959 3422 
Q 806 3050 800 2363 
Q 1003 2672 1297 2822 
Q 1591 2972 1913 2972 
Q 2475 2972 2870 2558 
Q 3266 2144 3266 1488 
Q 3266 1056 3080 686 
Q 2894 316 2569 119 
Q 2244 -78 1831 -78 
Q 1128 -78 684 439 
Q 241 956 241 2144 
Q 241 3472 731 4075 
Q 1159 4600 1884 4600 
Q 2425 4600 2770 4297 
Q 3116 3994 3184 3459 
z
M 888 1484 
Q 888 1194 1011 928 
Q 1134 663 1356 523 
Q 1578 384 1822 384 
Q 2178 384 2434 671 
Q 2691 959 2691 1453 
Q 2691 1928 2437 2201 
Q 2184 2475 1800 2475 
Q 1419 2475 1153 2201 
Q 888 1928 888 1484 
z
" transform="scale(0.015625)"/>
       </defs>
       <use xlink:href="#ArialMT-30"/>
       <use xlink:href="#ArialMT-2e" transform="translate(55.615234 0)"/>
       <use xlink:href="#ArialMT-36" transform="translate(83.398438 0)"/>
      </g>
     </g>
    </g>
    <g id="ytick_2">
     <g id="line2d_14">
      <path d="M 57.5925 316.821953 
L 1264.4625 316.821953 
" clip-path="url(#pf66728b48c)" style="fill: none; stroke-dasharray: 5.55,2.4; stroke-dashoffset: 0; stroke: #cccccc; stroke-opacity: 0.35; stroke-width: 1.5"/>
     </g>
     <g id="text_15">
      <!-- 0.7 -->
      <g style="fill: #262626" transform="translate(22.1575 322.727149) scale(0.165 -0.165)">
       <defs>
        <path id="ArialMT-37" d="M 303 3981 
L 303 4522 
L 3269 4522 
L 3269 4084 
Q 2831 3619 2401 2847 
Q 1972 2075 1738 1259 
Q 1569 684 1522 0 
L 944 0 
Q 953 541 1156 1306 
Q 1359 2072 1739 2783 
Q 2119 3494 2547 3981 
L 303 3981 
z
" transform="scale(0.015625)"/>
       </defs>
       <use xlink:href="#ArialMT-30"/>
       <use xlink:href="#ArialMT-2e" transform="translate(55.615234 0)"/>
       <use xlink:href="#ArialMT-37" transform="translate(83.398438 0)"/>
      </g>
     </g>
    </g>
    <g id="ytick_3">
     <g id="line2d_15">
      <path d="M 57.5925 223.315781 
L 1264.4625 223.315781 
" clip-path="url(#pf66728b48c)" style="fill: none; stroke-dasharray: 5.55,2.4; stroke-dashoffset: 0; stroke: #cccccc; stroke-opacity: 0.35; stroke-width: 1.5"/>
     </g>
     <g id="text_16">
      <!-- 0.8 -->
      <g style="fill: #262626" transform="translate(22.1575 229.220977) scale(0.165 -0.165)">
       <defs>
        <path id="ArialMT-38" d="M 1131 2484 
Q 781 2613 612 2850 
Q 444 3088 444 3419 
Q 444 3919 803 4259 
Q 1163 4600 1759 4600 
Q 2359 4600 2725 4251 
Q 3091 3903 3091 3403 
Q 3091 3084 2923 2848 
Q 2756 2613 2416 2484 
Q 2838 2347 3058 2040 
Q 3278 1734 3278 1309 
Q 3278 722 2862 322 
Q 2447 -78 1769 -78 
Q 1091 -78 675 323 
Q 259 725 259 1325 
Q 259 1772 486 2073 
Q 713 2375 1131 2484 
z
M 1019 3438 
Q 1019 3113 1228 2906 
Q 1438 2700 1772 2700 
Q 2097 2700 2305 2904 
Q 2513 3109 2513 3406 
Q 2513 3716 2298 3927 
Q 2084 4138 1766 4138 
Q 1444 4138 1231 3931 
Q 1019 3725 1019 3438 
z
M 838 1322 
Q 838 1081 952 856 
Q 1066 631 1291 507 
Q 1516 384 1775 384 
Q 2178 384 2440 643 
Q 2703 903 2703 1303 
Q 2703 1709 2433 1975 
Q 2163 2241 1756 2241 
Q 1359 2241 1098 1978 
Q 838 1716 838 1322 
z
" transform="scale(0.015625)"/>
       </defs>
       <use xlink:href="#ArialMT-30"/>
       <use xlink:href="#ArialMT-2e" transform="translate(55.615234 0)"/>
       <use xlink:href="#ArialMT-38" transform="translate(83.398438 0)"/>
      </g>
     </g>
    </g>
    <g id="ytick_4">
     <g id="line2d_16">
      <path d="M 57.5925 129.809609 
L 1264.4625 129.809609 
" clip-path="url(#pf66728b48c)" style="fill: none; stroke-dasharray: 5.55,2.4; stroke-dashoffset: 0; stroke: #cccccc; stroke-opacity: 0.35; stroke-width: 1.5"/>
     </g>
     <g id="text_17">
      <!-- 0.9 -->
      <g style="fill: #262626" transform="translate(22.1575 135.714805) scale(0.165 -0.165)">
       <defs>
        <path id="ArialMT-39" d="M 350 1059 
L 891 1109 
Q 959 728 1153 556 
Q 1347 384 1650 384 
Q 1909 384 2104 503 
Q 2300 622 2425 820 
Q 2550 1019 2634 1356 
Q 2719 1694 2719 2044 
Q 2719 2081 2716 2156 
Q 2547 1888 2255 1720 
Q 1963 1553 1622 1553 
Q 1053 1553 659 1965 
Q 266 2378 266 3053 
Q 266 3750 677 4175 
Q 1088 4600 1706 4600 
Q 2153 4600 2523 4359 
Q 2894 4119 3086 3673 
Q 3278 3228 3278 2384 
Q 3278 1506 3087 986 
Q 2897 466 2520 194 
Q 2144 -78 1638 -78 
Q 1100 -78 759 220 
Q 419 519 350 1059 
z
M 2653 3081 
Q 2653 3566 2395 3850 
Q 2138 4134 1775 4134 
Q 1400 4134 1122 3828 
Q 844 3522 844 3034 
Q 844 2597 1108 2323 
Q 1372 2050 1759 2050 
Q 2150 2050 2401 2323 
Q 2653 2597 2653 3081 
z
" transform="scale(0.015625)"/>
       </defs>
       <use xlink:href="#ArialMT-30"/>
       <use xlink:href="#ArialMT-2e" transform="translate(55.615234 0)"/>
       <use xlink:href="#ArialMT-39" transform="translate(83.398438 0)"/>
      </g>
     </g>
    </g>
    <g id="ytick_5">
     <g id="line2d_17">
      <path d="M 57.5925 36.303437 
L 1264.4625 36.303437 
" clip-path="url(#pf66728b48c)" style="fill: none; stroke-dasharray: 5.55,2.4; stroke-dashoffset: 0; stroke: #cccccc; stroke-opacity: 0.35; stroke-width: 1.5"/>
     </g>
     <g id="text_18">
      <!-- 1.0 -->
      <g style="fill: #262626" transform="translate(22.1575 42.208633) scale(0.165 -0.165)">
       <defs>
        <path id="ArialMT-31" d="M 2384 0 
L 1822 0 
L 1822 3584 
Q 1619 3391 1289 3197 
Q 959 3003 697 2906 
L 697 3450 
Q 1169 3672 1522 3987 
Q 1875 4303 2022 4600 
L 2384 4600 
L 2384 0 
z
" transform="scale(0.015625)"/>
       </defs>
       <use xlink:href="#ArialMT-31"/>
       <use xlink:href="#ArialMT-2e" transform="translate(55.615234 0)"/>
       <use xlink:href="#ArialMT-30" transform="translate(83.398438 0)"/>
      </g>
     </g>
    </g>
    <g id="text_19">
     <!-- Score -->
     <g style="fill: #262626" transform="translate(15.789375 267.864349) rotate(-90) scale(0.12 -0.12)">
      <defs>
       <path id="Arial-BoldMT-63" d="M 3353 2338 
L 2488 2181 
Q 2444 2441 2289 2572 
Q 2134 2703 1888 2703 
Q 1559 2703 1364 2476 
Q 1169 2250 1169 1719 
Q 1169 1128 1367 884 
Q 1566 641 1900 641 
Q 2150 641 2309 783 
Q 2469 925 2534 1272 
L 3397 1125 
Q 3263 531 2881 228 
Q 2500 -75 1859 -75 
Q 1131 -75 698 384 
Q 266 844 266 1656 
Q 266 2478 700 2936 
Q 1134 3394 1875 3394 
Q 2481 3394 2839 3133 
Q 3197 2872 3353 2338 
z
" transform="scale(0.015625)"/>
      </defs>
      <use xlink:href="#Arial-BoldMT-53"/>
      <use xlink:href="#Arial-BoldMT-63" transform="translate(66.699219 0)"/>
      <use xlink:href="#Arial-BoldMT-6f" transform="translate(122.314453 0)"/>
      <use xlink:href="#Arial-BoldMT-72" transform="translate(183.398438 0)"/>
      <use xlink:href="#Arial-BoldMT-65" transform="translate(222.314453 0)"/>
     </g>
    </g>
   </g>
   <g id="FillBetweenPolyCollection_1">
    <defs>
     <path id="ma6c2968e83" d="M 158.165 -123.428296 
L 158.165 -521.770199 
L 249.594545 -519.724284 
L 341.024091 -520.280646 
L 432.453636 -269.779481 
L 523.883182 -263.456594 
L 615.312727 -269.626131 
L 706.742273 -497.780256 
L 798.171818 -490.155763 
L 889.601364 -494.755331 
L 981.030909 -501.871151 
L 1072.460455 -506.892432 
L 1163.89 -448.311751 
L 1163.89 -123.428296 
L 1163.89 -123.428296 
L 1072.460455 -123.428296 
L 981.030909 -123.428296 
L 889.601364 -123.428296 
L 798.171818 -123.428296 
L 706.742273 -123.428296 
L 615.312727 -123.428296 
L 523.883182 -123.428296 
L 432.453636 -123.428296 
L 341.024091 -123.428296 
L 249.594545 -123.428296 
L 158.165 -123.428296 
z
" style="stroke: #a1c6e0; stroke-opacity: 0.18; stroke-width: 1.5"/>
    </defs>
    <g clip-path="url(#pf66728b48c)">
     <use xlink:href="#ma6c2968e83" x="0" y="589.502931" style="fill: #a1c6e0; fill-opacity: 0.18; stroke: #a1c6e0; stroke-opacity: 0.18; stroke-width: 1.5"/>
    </g>
   </g>
   <g id="FillBetweenPolyCollection_2">
    <defs>
     <path id="mbd41e5a3dd" d="M 158.165 -123.428296 
L 158.165 -517.352968 
L 249.594545 -514.791834 
L 341.024091 -515.482844 
L 432.453636 -184.513073 
L 523.883182 -183.69957 
L 615.312727 -191.940269 
L 706.742273 -490.377372 
L 798.171818 -481.63361 
L 889.601364 -486.33697 
L 981.030909 -494.326138 
L 1072.460455 -500.434896 
L 1163.89 -433.627541 
L 1163.89 -123.428296 
L 1163.89 -123.428296 
L 1072.460455 -123.428296 
L 981.030909 -123.428296 
L 889.601364 -123.428296 
L 798.171818 -123.428296 
L 706.742273 -123.428296 
L 615.312727 -123.428296 
L 523.883182 -123.428296 
L 432.453636 -123.428296 
L 341.024091 -123.428296 
L 249.594545 -123.428296 
L 158.165 -123.428296 
z
" style="stroke: #ffc99a; stroke-opacity: 0.18; stroke-width: 1.5"/>
    </defs>
    <g clip-path="url(#pf66728b48c)">
     <use xlink:href="#mbd41e5a3dd" x="0" y="589.502931" style="fill: #ffc99a; fill-opacity: 0.18; stroke: #ffc99a; stroke-opacity: 0.18; stroke-width: 1.5"/>
    </g>
   </g>
   <g id="FillBetweenPolyCollection_3">
    <defs>
     <path id="me4f618f5a2" d="M 158.165 -123.428296 
L 158.165 -510.57377 
L 249.594545 -510.129616 
L 341.024091 -510.312888 
L 432.453636 -210.571373 
L 523.883182 -202.866465 
L 615.312727 -211.903836 
L 706.742273 -482.2414 
L 798.171818 -474.064285 
L 889.601364 -481.03517 
L 981.030909 -489.778933 
L 1072.460455 -493.629517 
L 1163.89 -428.084495 
L 1163.89 -123.428296 
L 1163.89 -123.428296 
L 1072.460455 -123.428296 
L 981.030909 -123.428296 
L 889.601364 -123.428296 
L 798.171818 -123.428296 
L 706.742273 -123.428296 
L 615.312727 -123.428296 
L 523.883182 -123.428296 
L 432.453636 -123.428296 
L 341.024091 -123.428296 
L 249.594545 -123.428296 
L 158.165 -123.428296 
z
" style="stroke: #a6d7a6; stroke-opacity: 0.18; stroke-width: 1.5"/>
    </defs>
    <g clip-path="url(#pf66728b48c)">
     <use xlink:href="#me4f618f5a2" x="0" y="589.502931" style="fill: #a6d7a6; fill-opacity: 0.18; stroke: #a6d7a6; stroke-opacity: 0.18; stroke-width: 1.5"/>
    </g>
   </g>
   <g id="FillBetweenPolyCollection_4">
    <defs>
     <path id="m8e833e16df" d="M 158.165 -123.428296 
L 158.165 -525.313148 
L 249.594545 -519.964595 
L 341.024091 -521.294253 
L 432.453636 -180.281919 
L 523.883182 -179.531999 
L 615.312727 -187.047091 
L 706.742273 -500.597597 
L 798.171818 -491.022565 
L 889.601364 -492.404586 
L 981.030909 -499.398848 
L 1072.460455 -508.524115 
L 1163.89 -440.274895 
L 1163.89 -123.428296 
L 1163.89 -123.428296 
L 1072.460455 -123.428296 
L 981.030909 -123.428296 
L 889.601364 -123.428296 
L 798.171818 -123.428296 
L 706.742273 -123.428296 
L 615.312727 -123.428296 
L 523.883182 -123.428296 
L 432.453636 -123.428296 
L 341.024091 -123.428296 
L 249.594545 -123.428296 
L 158.165 -123.428296 
z
" style="stroke: #eea4a5; stroke-opacity: 0.18; stroke-width: 1.5"/>
    </defs>
    <g clip-path="url(#pf66728b48c)">
     <use xlink:href="#m8e833e16df" x="0" y="589.502931" style="fill: #eea4a5; fill-opacity: 0.18; stroke: #eea4a5; stroke-opacity: 0.18; stroke-width: 1.5"/>
    </g>
   </g>
   <g id="line2d_18">
    <path d="M 386.738864 466.074635 
L 386.738864 36.303437 
" clip-path="url(#pf66728b48c)" style="fill: none; stroke-dasharray: 3.7,1.6; stroke-dashoffset: 0; stroke: #9e9e9e; stroke-opacity: 0.45"/>
   </g>
   <g id="line2d_19">
    <path d="M 661.0275 466.074635 
L 661.0275 36.303437 
" clip-path="url(#pf66728b48c)" style="fill: none; stroke-dasharray: 3.7,1.6; stroke-dashoffset: 0; stroke: #9e9e9e; stroke-opacity: 0.45"/>
   </g>
   <g id="line2d_20">
    <path d="M 935.316136 466.074635 
L 935.316136 36.303437 
" clip-path="url(#pf66728b48c)" style="fill: none; stroke-dasharray: 3.7,1.6; stroke-dashoffset: 0; stroke: #9e9e9e; stroke-opacity: 0.45"/>
   </g>
   <g id="line2d_21">
    <path d="M 1026.745682 466.074635 
L 1026.745682 36.303437 
" clip-path="url(#pf66728b48c)" style="fill: none; stroke-dasharray: 3.7,1.6; stroke-dashoffset: 0; stroke: #9e9e9e; stroke-opacity: 0.45"/>
   </g>
   <g id="line2d_22">
    <path d="M 1118.175227 466.074635 
L 1118.175227 36.303437 
" clip-path="url(#pf66728b48c)" style="fill: none; stroke-dasharray: 3.7,1.6; stroke-dashoffset: 0; stroke: #9e9e9e; stroke-opacity: 0.45"/>
   </g>
   <g id="patch_9">
    <path d="M 57.5925 466.074635 
L 57.5925 36.303437 
" style="fill: none; stroke: #cccccc; stroke-width: 1.875; stroke-linejoin: miter; stroke-linecap: square"/>
   </g>
   <g id="patch_10">
    <path d="M 1264.4625 466.074635 
L 1264.4625 36.303437 
" style="fill: none; stroke: #cccccc; stroke-width: 1.875; stroke-linejoin: miter; stroke-linecap: square"/>
   </g>
   <g id="patch_11">
    <path d="M 57.5925 466.074635 
L 1264.4625 466.074635 
" style="fill: none; stroke: #cccccc; stroke-width: 1.875; stroke-linejoin: miter; stroke-linecap: square"/>
   </g>
   <g id="patch_12">
    <path d="M 57.5925 36.303437 
L 1264.4625 36.303437 
" style="fill: none; stroke: #cccccc; stroke-width: 1.875; stroke-linejoin: miter; stroke-linecap: square"/>
   </g>
   <g id="text_20">
    <!-- XLM-RoBERTa -->
    <g style="fill: #262626" transform="translate(211.19767 449.877928) scale(0.11 -0.11)">
     <defs>
      <path id="Arial-BoldMT-58" d="M 0 0 
L 1566 2391 
L 147 4581 
L 1228 4581 
L 2147 3109 
L 3047 4581 
L 4119 4581 
L 2694 2356 
L 4259 0 
L 3144 0 
L 2128 1584 
L 1109 0 
L 0 0 
z
" transform="scale(0.015625)"/>
      <path id="Arial-BoldMT-4c" d="M 491 0 
L 491 4544 
L 1416 4544 
L 1416 772 
L 3716 772 
L 3716 0 
L 491 0 
z
" transform="scale(0.015625)"/>
      <path id="Arial-BoldMT-2d" d="M 359 1222 
L 359 2100 
L 2084 2100 
L 2084 1222 
L 359 1222 
z
" transform="scale(0.015625)"/>
      <path id="Arial-BoldMT-52" d="M 469 0 
L 469 4581 
L 2416 4581 
Q 3150 4581 3483 4457 
Q 3816 4334 4016 4018 
Q 4216 3703 4216 3297 
Q 4216 2781 3912 2445 
Q 3609 2109 3006 2022 
Q 3306 1847 3501 1637 
Q 3697 1428 4028 894 
L 4588 0 
L 3481 0 
L 2813 997 
Q 2456 1531 2325 1670 
Q 2194 1809 2047 1861 
Q 1900 1913 1581 1913 
L 1394 1913 
L 1394 0 
L 469 0 
z
M 1394 2644 
L 2078 2644 
Q 2744 2644 2909 2700 
Q 3075 2756 3169 2893 
Q 3263 3031 3263 3238 
Q 3263 3469 3139 3611 
Q 3016 3753 2791 3791 
Q 2678 3806 2116 3806 
L 1394 3806 
L 1394 2644 
z
" transform="scale(0.015625)"/>
      <path id="Arial-BoldMT-42" d="M 469 4581 
L 2300 4581 
Q 2844 4581 3111 4536 
Q 3378 4491 3589 4347 
Q 3800 4203 3940 3964 
Q 4081 3725 4081 3428 
Q 4081 3106 3907 2837 
Q 3734 2569 3438 2434 
Q 3856 2313 4081 2019 
Q 4306 1725 4306 1328 
Q 4306 1016 4161 720 
Q 4016 425 3764 248 
Q 3513 72 3144 31 
Q 2913 6 2028 0 
L 469 0 
L 469 4581 
z
M 1394 3819 
L 1394 2759 
L 2000 2759 
Q 2541 2759 2672 2775 
Q 2909 2803 3045 2939 
Q 3181 3075 3181 3297 
Q 3181 3509 3064 3642 
Q 2947 3775 2716 3803 
Q 2578 3819 1925 3819 
L 1394 3819 
z
M 1394 1997 
L 1394 772 
L 2250 772 
Q 2750 772 2884 800 
Q 3091 838 3220 983 
Q 3350 1128 3350 1372 
Q 3350 1578 3250 1722 
Q 3150 1866 2961 1931 
Q 2772 1997 2141 1997 
L 1394 1997 
z
" transform="scale(0.015625)"/>
      <path id="Arial-BoldMT-54" d="M 1497 0 
L 1497 3806 
L 138 3806 
L 138 4581 
L 3778 4581 
L 3778 3806 
L 2422 3806 
L 2422 0 
L 1497 0 
z
" transform="scale(0.015625)"/>
     </defs>
     <use xlink:href="#Arial-BoldMT-58"/>
     <use xlink:href="#Arial-BoldMT-4c" transform="translate(66.699219 0)"/>
     <use xlink:href="#Arial-BoldMT-4d" transform="translate(127.783203 0)"/>
     <use xlink:href="#Arial-BoldMT-2d" transform="translate(211.083984 0)"/>
     <use xlink:href="#Arial-BoldMT-52" transform="translate(244.384766 0)"/>
     <use xlink:href="#Arial-BoldMT-6f" transform="translate(316.601562 0)"/>
     <use xlink:href="#Arial-BoldMT-42" transform="translate(377.685547 0)"/>
     <use xlink:href="#Arial-BoldMT-45" transform="translate(449.902344 0)"/>
     <use xlink:href="#Arial-BoldMT-52" transform="translate(516.601562 0)"/>
     <use xlink:href="#Arial-BoldMT-54" transform="translate(588.818359 0)"/>
     <use xlink:href="#Arial-BoldMT-61" transform="translate(642.527344 0)"/>
    </g>
   </g>
   <g id="text_21">
    <!-- mBERT -->
    <g style="fill: #262626" transform="translate(504.020447 449.877928) scale(0.11 -0.11)">
     <use xlink:href="#Arial-BoldMT-6d"/>
     <use xlink:href="#Arial-BoldMT-42" transform="translate(88.916016 0)"/>
     <use xlink:href="#Arial-BoldMT-45" transform="translate(161.132812 0)"/>
     <use xlink:href="#Arial-BoldMT-52" transform="translate(227.832031 0)"/>
     <use xlink:href="#Arial-BoldMT-54" transform="translate(300.048828 0)"/>
    </g>
   </g>
   <g id="text_22">
    <!-- mBERT-Lao -->
    <g style="fill: #262626" transform="translate(767.003146 449.877928) scale(0.11 -0.11)">
     <use xlink:href="#Arial-BoldMT-6d"/>
     <use xlink:href="#Arial-BoldMT-42" transform="translate(88.916016 0)"/>
     <use xlink:href="#Arial-BoldMT-45" transform="translate(161.132812 0)"/>
     <use xlink:href="#Arial-BoldMT-52" transform="translate(227.832031 0)"/>
     <use xlink:href="#Arial-BoldMT-54" transform="translate(300.048828 0)"/>
     <use xlink:href="#Arial-BoldMT-2d" transform="translate(355.632812 0)"/>
     <use xlink:href="#Arial-BoldMT-4c" transform="translate(388.933594 0)"/>
     <use xlink:href="#Arial-BoldMT-61" transform="translate(450.017578 0)"/>
     <use xlink:href="#Arial-BoldMT-6f" transform="translate(505.632812 0)"/>
    </g>
   </g>
   <g id="text_23">
    <!-- Logistic Regression -->
    <g style="fill: #262626" transform="translate(928.468097 449.733553) scale(0.11 -0.11)">
     <defs>
      <path id="Arial-BoldMT-73" d="M 150 947 
L 1031 1081 
Q 1088 825 1259 692 
Q 1431 559 1741 559 
Q 2081 559 2253 684 
Q 2369 772 2369 919 
Q 2369 1019 2306 1084 
Q 2241 1147 2013 1200 
Q 950 1434 666 1628 
Q 272 1897 272 2375 
Q 272 2806 612 3100 
Q 953 3394 1669 3394 
Q 2350 3394 2681 3172 
Q 3013 2950 3138 2516 
L 2309 2363 
Q 2256 2556 2107 2659 
Q 1959 2763 1684 2763 
Q 1338 2763 1188 2666 
Q 1088 2597 1088 2488 
Q 1088 2394 1175 2328 
Q 1294 2241 1995 2081 
Q 2697 1922 2975 1691 
Q 3250 1456 3250 1038 
Q 3250 581 2869 253 
Q 2488 -75 1741 -75 
Q 1063 -75 667 200 
Q 272 475 150 947 
z
" transform="scale(0.015625)"/>
     </defs>
     <use xlink:href="#Arial-BoldMT-4c"/>
     <use xlink:href="#Arial-BoldMT-6f" transform="translate(61.083984 0)"/>
     <use xlink:href="#Arial-BoldMT-67" transform="translate(122.167969 0)"/>
     <use xlink:href="#Arial-BoldMT-69" transform="translate(183.251953 0)"/>
     <use xlink:href="#Arial-BoldMT-73" transform="translate(211.035156 0)"/>
     <use xlink:href="#Arial-BoldMT-74" transform="translate(266.650391 0)"/>
     <use xlink:href="#Arial-BoldMT-69" transform="translate(299.951172 0)"/>
     <use xlink:href="#Arial-BoldMT-63" transform="translate(327.734375 0)"/>
     <use xlink:href="#Arial-BoldMT-20" transform="translate(383.349609 0)"/>
     <use xlink:href="#Arial-BoldMT-52" transform="translate(411.132812 0)"/>
     <use xlink:href="#Arial-BoldMT-65" transform="translate(483.349609 0)"/>
     <use xlink:href="#Arial-BoldMT-67" transform="translate(538.964844 0)"/>
     <use xlink:href="#Arial-BoldMT-72" transform="translate(600.048828 0)"/>
     <use xlink:href="#Arial-BoldMT-65" transform="translate(638.964844 0)"/>
     <use xlink:href="#Arial-BoldMT-73" transform="translate(694.580078 0)"/>
     <use xlink:href="#Arial-BoldMT-73" transform="translate(750.195312 0)"/>
     <use xlink:href="#Arial-BoldMT-69" transform="translate(805.810547 0)"/>
     <use xlink:href="#Arial-BoldMT-6f" transform="translate(833.59375 0)"/>
     <use xlink:href="#Arial-BoldMT-6e" transform="translate(894.677734 0)"/>
    </g>
   </g>
   <g id="text_24">
    <!-- SVM -->
    <g style="fill: #262626" transform="translate(1060.541783 449.877928) scale(0.11 -0.11)">
     <defs>
      <path id="Arial-BoldMT-56" d="M 1634 0 
L -3 4581 
L 1000 4581 
L 2159 1191 
L 3281 4581 
L 4263 4581 
L 2622 0 
L 1634 0 
z
" transform="scale(0.015625)"/>
     </defs>
     <use xlink:href="#Arial-BoldMT-53"/>
     <use xlink:href="#Arial-BoldMT-56" transform="translate(66.699219 0)"/>
     <use xlink:href="#Arial-BoldMT-4d" transform="translate(133.398438 0)"/>
    </g>
   </g>
   <g id="text_25">
    <!-- Decision Tree -->
    <g style="fill: #262626" transform="translate(1128.125391 449.877928) scale(0.11 -0.11)">
     <defs>
      <path id="Arial-BoldMT-44" d="M 463 4581 
L 2153 4581 
Q 2725 4581 3025 4494 
Q 3428 4375 3715 4072 
Q 4003 3769 4153 3330 
Q 4303 2891 4303 2247 
Q 4303 1681 4163 1272 
Q 3991 772 3672 463 
Q 3431 228 3022 97 
Q 2716 0 2203 0 
L 463 0 
L 463 4581 
z
M 1388 3806 
L 1388 772 
L 2078 772 
Q 2466 772 2638 816 
Q 2863 872 3011 1006 
Q 3159 1141 3253 1448 
Q 3347 1756 3347 2288 
Q 3347 2819 3253 3103 
Q 3159 3388 2990 3547 
Q 2822 3706 2563 3763 
Q 2369 3806 1803 3806 
L 1388 3806 
z
" transform="scale(0.015625)"/>
     </defs>
     <use xlink:href="#Arial-BoldMT-44"/>
     <use xlink:href="#Arial-BoldMT-65" transform="translate(72.216797 0)"/>
     <use xlink:href="#Arial-BoldMT-63" transform="translate(127.832031 0)"/>
     <use xlink:href="#Arial-BoldMT-69" transform="translate(183.447266 0)"/>
     <use xlink:href="#Arial-BoldMT-73" transform="translate(211.230469 0)"/>
     <use xlink:href="#Arial-BoldMT-69" transform="translate(266.845703 0)"/>
     <use xlink:href="#Arial-BoldMT-6f" transform="translate(294.628906 0)"/>
     <use xlink:href="#Arial-BoldMT-6e" transform="translate(355.712891 0)"/>
     <use xlink:href="#Arial-BoldMT-20" transform="translate(416.796875 0)"/>
     <use xlink:href="#Arial-BoldMT-54" transform="translate(444.580078 0)"/>
     <use xlink:href="#Arial-BoldMT-72" transform="translate(500.164062 0)"/>
     <use xlink:href="#Arial-BoldMT-65" transform="translate(539.080078 0)"/>
     <use xlink:href="#Arial-BoldMT-65" transform="translate(594.695312 0)"/>
    </g>
   </g>
   <g id="line2d_23">
    <path d="M 158.165 67.732732 
L 249.594545 69.778647 
L 341.024091 69.222285 
L 432.453636 319.72345 
L 523.883182 326.046337 
L 615.312727 319.8768 
L 706.742273 91.722676 
L 798.171818 99.347169 
L 889.601364 94.7476 
L 981.030909 87.63178 
L 1072.460455 82.610499 
L 1163.89 141.191181 
" clip-path="url(#pf66728b48c)" style="fill: none; stroke: #1f77b4; stroke-opacity: 0.95; stroke-width: 2.8; stroke-linecap: round"/>
    <defs>
     <path id="m22cf1ce3b2" d="M 0 3.5 
C 0.928211 3.5 1.81853 3.131218 2.474874 2.474874 
C 3.131218 1.81853 3.5 0.928211 3.5 0 
C 3.5 -0.928211 3.131218 -1.81853 2.474874 -2.474874 
C 1.81853 -3.131218 0.928211 -3.5 0 -3.5 
C -0.928211 -3.5 -1.81853 -3.131218 -2.474874 -2.474874 
C -3.131218 -1.81853 -3.5 -0.928211 -3.5 0 
C -3.5 0.928211 -3.131218 1.81853 -2.474874 2.474874 
C -1.81853 3.131218 -0.928211 3.5 0 3.5 
z
" style="stroke: #1f77b4; stroke-opacity: 0.95"/>
    </defs>
    <g clip-path="url(#pf66728b48c)">
     <use xlink:href="#m22cf1ce3b2" x="158.165" y="67.732732" style="fill: #1f77b4; fill-opacity: 0.95; stroke: #1f77b4; stroke-opacity: 0.95"/>
     <use xlink:href="#m22cf1ce3b2" x="249.594545" y="69.778647" style="fill: #1f77b4; fill-opacity: 0.95; stroke: #1f77b4; stroke-opacity: 0.95"/>
     <use xlink:href="#m22cf1ce3b2" x="341.024091" y="69.222285" style="fill: #1f77b4; fill-opacity: 0.95; stroke: #1f77b4; stroke-opacity: 0.95"/>
     <use xlink:href="#m22cf1ce3b2" x="432.453636" y="319.72345" style="fill: #1f77b4; fill-opacity: 0.95; stroke: #1f77b4; stroke-opacity: 0.95"/>
     <use xlink:href="#m22cf1ce3b2" x="523.883182" y="326.046337" style="fill: #1f77b4; fill-opacity: 0.95; stroke: #1f77b4; stroke-opacity: 0.95"/>
     <use xlink:href="#m22cf1ce3b2" x="615.312727" y="319.8768" style="fill: #1f77b4; fill-opacity: 0.95; stroke: #1f77b4; stroke-opacity: 0.95"/>
     <use xlink:href="#m22cf1ce3b2" x="706.742273" y="91.722676" style="fill: #1f77b4; fill-opacity: 0.95; stroke: #1f77b4; stroke-opacity: 0.95"/>
     <use xlink:href="#m22cf1ce3b2" x="798.171818" y="99.347169" style="fill: #1f77b4; fill-opacity: 0.95; stroke: #1f77b4; stroke-opacity: 0.95"/>
     <use xlink:href="#m22cf1ce3b2" x="889.601364" y="94.7476" style="fill: #1f77b4; fill-opacity: 0.95; stroke: #1f77b4; stroke-opacity: 0.95"/>
     <use xlink:href="#m22cf1ce3b2" x="981.030909" y="87.63178" style="fill: #1f77b4; fill-opacity: 0.95; stroke: #1f77b4; stroke-opacity: 0.95"/>
     <use xlink:href="#m22cf1ce3b2" x="1072.460455" y="82.610499" style="fill: #1f77b4; fill-opacity: 0.95; stroke: #1f77b4; stroke-opacity: 0.95"/>
     <use xlink:href="#m22cf1ce3b2" x="1163.89" y="141.191181" style="fill: #1f77b4; fill-opacity: 0.95; stroke: #1f77b4; stroke-opacity: 0.95"/>
    </g>
   </g>
   <g id="line2d_24">
    <path d="M 158.165 72.149964 
L 249.594545 74.711098 
L 341.024091 74.020087 
L 432.453636 404.989858 
L 523.883182 405.803362 
L 615.312727 397.562663 
L 706.742273 99.125559 
L 798.171818 107.869321 
L 889.601364 103.165961 
L 981.030909 95.176793 
L 1072.460455 89.068035 
L 1163.89 155.87539 
" clip-path="url(#pf66728b48c)" style="fill: none; stroke: #ff7f0e; stroke-opacity: 0.95; stroke-width: 2.8; stroke-linecap: round"/>
    <defs>
     <path id="m289b20b5a9" d="M 0 3.5 
C 0.928211 3.5 1.81853 3.131218 2.474874 2.474874 
C 3.131218 1.81853 3.5 0.928211 3.5 0 
C 3.5 -0.928211 3.131218 -1.81853 2.474874 -2.474874 
C 1.81853 -3.131218 0.928211 -3.5 0 -3.5 
C -0.928211 -3.5 -1.81853 -3.131218 -2.474874 -2.474874 
C -3.131218 -1.81853 -3.5 -0.928211 -3.5 0 
C -3.5 0.928211 -3.131218 1.81853 -2.474874 2.474874 
C -1.81853 3.131218 -0.928211 3.5 0 3.5 
z
" style="stroke: #ff7f0e; stroke-opacity: 0.95"/>
    </defs>
    <g clip-path="url(#pf66728b48c)">
     <use xlink:href="#m289b20b5a9" x="158.165" y="72.149964" style="fill: #ff7f0e; fill-opacity: 0.95; stroke: #ff7f0e; stroke-opacity: 0.95"/>
     <use xlink:href="#m289b20b5a9" x="249.594545" y="74.711098" style="fill: #ff7f0e; fill-opacity: 0.95; stroke: #ff7f0e; stroke-opacity: 0.95"/>
     <use xlink:href="#m289b20b5a9" x="341.024091" y="74.020087" style="fill: #ff7f0e; fill-opacity: 0.95; stroke: #ff7f0e; stroke-opacity: 0.95"/>
     <use xlink:href="#m289b20b5a9" x="432.453636" y="404.989858" style="fill: #ff7f0e; fill-opacity: 0.95; stroke: #ff7f0e; stroke-opacity: 0.95"/>
     <use xlink:href="#m289b20b5a9" x="523.883182" y="405.803362" style="fill: #ff7f0e; fill-opacity: 0.95; stroke: #ff7f0e; stroke-opacity: 0.95"/>
     <use xlink:href="#m289b20b5a9" x="615.312727" y="397.562663" style="fill: #ff7f0e; fill-opacity: 0.95; stroke: #ff7f0e; stroke-opacity: 0.95"/>
     <use xlink:href="#m289b20b5a9" x="706.742273" y="99.125559" style="fill: #ff7f0e; fill-opacity: 0.95; stroke: #ff7f0e; stroke-opacity: 0.95"/>
     <use xlink:href="#m289b20b5a9" x="798.171818" y="107.869321" style="fill: #ff7f0e; fill-opacity: 0.95; stroke: #ff7f0e; stroke-opacity: 0.95"/>
     <use xlink:href="#m289b20b5a9" x="889.601364" y="103.165961" style="fill: #ff7f0e; fill-opacity: 0.95; stroke: #ff7f0e; stroke-opacity: 0.95"/>
     <use xlink:href="#m289b20b5a9" x="981.030909" y="95.176793" style="fill: #ff7f0e; fill-opacity: 0.95; stroke: #ff7f0e; stroke-opacity: 0.95"/>
     <use xlink:href="#m289b20b5a9" x="1072.460455" y="89.068035" style="fill: #ff7f0e; fill-opacity: 0.95; stroke: #ff7f0e; stroke-opacity: 0.95"/>
     <use xlink:href="#m289b20b5a9" x="1163.89" y="155.87539" style="fill: #ff7f0e; fill-opacity: 0.95; stroke: #ff7f0e; stroke-opacity: 0.95"/>
    </g>
   </g>
   <g id="line2d_25">
    <path d="M 158.165 78.929161 
L 249.594545 79.373315 
L 341.024091 79.190043 
L 432.453636 378.931558 
L 523.883182 386.636467 
L 615.312727 377.599095 
L 706.742273 107.261531 
L 798.171818 115.438646 
L 889.601364 108.467761 
L 981.030909 99.723999 
L 1072.460455 95.873414 
L 1163.89 161.418436 
" clip-path="url(#pf66728b48c)" style="fill: none; stroke: #2ca02c; stroke-opacity: 0.95; stroke-width: 2.8; stroke-linecap: round"/>
    <defs>
     <path id="ma45876dcd5" d="M 0 3.5 
C 0.928211 3.5 1.81853 3.131218 2.474874 2.474874 
C 3.131218 1.81853 3.5 0.928211 3.5 0 
C 3.5 -0.928211 3.131218 -1.81853 2.474874 -2.474874 
C 1.81853 -3.131218 0.928211 -3.5 0 -3.5 
C -0.928211 -3.5 -1.81853 -3.131218 -2.474874 -2.474874 
C -3.131218 -1.81853 -3.5 -0.928211 -3.5 0 
C -3.5 0.928211 -3.131218 1.81853 -2.474874 2.474874 
C -1.81853 3.131218 -0.928211 3.5 0 3.5 
z
" style="stroke: #2ca02c; stroke-opacity: 0.95"/>
    </defs>
    <g clip-path="url(#pf66728b48c)">
     <use xlink:href="#ma45876dcd5" x="158.165" y="78.929161" style="fill: #2ca02c; fill-opacity: 0.95; stroke: #2ca02c; stroke-opacity: 0.95"/>
     <use xlink:href="#ma45876dcd5" x="249.594545" y="79.373315" style="fill: #2ca02c; fill-opacity: 0.95; stroke: #2ca02c; stroke-opacity: 0.95"/>
     <use xlink:href="#ma45876dcd5" x="341.024091" y="79.190043" style="fill: #2ca02c; fill-opacity: 0.95; stroke: #2ca02c; stroke-opacity: 0.95"/>
     <use xlink:href="#ma45876dcd5" x="432.453636" y="378.931558" style="fill: #2ca02c; fill-opacity: 0.95; stroke: #2ca02c; stroke-opacity: 0.95"/>
     <use xlink:href="#ma45876dcd5" x="523.883182" y="386.636467" style="fill: #2ca02c; fill-opacity: 0.95; stroke: #2ca02c; stroke-opacity: 0.95"/>
     <use xlink:href="#ma45876dcd5" x="615.312727" y="377.599095" style="fill: #2ca02c; fill-opacity: 0.95; stroke: #2ca02c; stroke-opacity: 0.95"/>
     <use xlink:href="#ma45876dcd5" x="706.742273" y="107.261531" style="fill: #2ca02c; fill-opacity: 0.95; stroke: #2ca02c; stroke-opacity: 0.95"/>
     <use xlink:href="#ma45876dcd5" x="798.171818" y="115.438646" style="fill: #2ca02c; fill-opacity: 0.95; stroke: #2ca02c; stroke-opacity: 0.95"/>
     <use xlink:href="#ma45876dcd5" x="889.601364" y="108.467761" style="fill: #2ca02c; fill-opacity: 0.95; stroke: #2ca02c; stroke-opacity: 0.95"/>
     <use xlink:href="#ma45876dcd5" x="981.030909" y="99.723999" style="fill: #2ca02c; fill-opacity: 0.95; stroke: #2ca02c; stroke-opacity: 0.95"/>
     <use xlink:href="#ma45876dcd5" x="1072.460455" y="95.873414" style="fill: #2ca02c; fill-opacity: 0.95; stroke: #2ca02c; stroke-opacity: 0.95"/>
     <use xlink:href="#ma45876dcd5" x="1163.89" y="161.418436" style="fill: #2ca02c; fill-opacity: 0.95; stroke: #2ca02c; stroke-opacity: 0.95"/>
    </g>
   </g>
   <g id="line2d_26">
    <path d="M 158.165 64.189783 
L 249.594545 69.538336 
L 341.024091 68.208678 
L 432.453636 409.221012 
L 523.883182 409.970932 
L 615.312727 402.455841 
L 706.742273 88.905335 
L 798.171818 98.480367 
L 889.601364 97.098345 
L 981.030909 90.104084 
L 1072.460455 80.978816 
L 1163.89 149.228036 
" clip-path="url(#pf66728b48c)" style="fill: none; stroke: #d62728; stroke-opacity: 0.95; stroke-width: 2.8; stroke-linecap: round"/>
    <defs>
     <path id="m3feafb16e8" d="M 0 3.5 
C 0.928211 3.5 1.81853 3.131218 2.474874 2.474874 
C 3.131218 1.81853 3.5 0.928211 3.5 0 
C 3.5 -0.928211 3.131218 -1.81853 2.474874 -2.474874 
C 1.81853 -3.131218 0.928211 -3.5 0 -3.5 
C -0.928211 -3.5 -1.81853 -3.131218 -2.474874 -2.474874 
C -3.131218 -1.81853 -3.5 -0.928211 -3.5 0 
C -3.5 0.928211 -3.131218 1.81853 -2.474874 2.474874 
C -1.81853 3.131218 -0.928211 3.5 0 3.5 
z
" style="stroke: #d62728; stroke-opacity: 0.95"/>
    </defs>
    <g clip-path="url(#pf66728b48c)">
     <use xlink:href="#m3feafb16e8" x="158.165" y="64.189783" style="fill: #d62728; fill-opacity: 0.95; stroke: #d62728; stroke-opacity: 0.95"/>
     <use xlink:href="#m3feafb16e8" x="249.594545" y="69.538336" style="fill: #d62728; fill-opacity: 0.95; stroke: #d62728; stroke-opacity: 0.95"/>
     <use xlink:href="#m3feafb16e8" x="341.024091" y="68.208678" style="fill: #d62728; fill-opacity: 0.95; stroke: #d62728; stroke-opacity: 0.95"/>
     <use xlink:href="#m3feafb16e8" x="432.453636" y="409.221012" style="fill: #d62728; fill-opacity: 0.95; stroke: #d62728; stroke-opacity: 0.95"/>
     <use xlink:href="#m3feafb16e8" x="523.883182" y="409.970932" style="fill: #d62728; fill-opacity: 0.95; stroke: #d62728; stroke-opacity: 0.95"/>
     <use xlink:href="#m3feafb16e8" x="615.312727" y="402.455841" style="fill: #d62728; fill-opacity: 0.95; stroke: #d62728; stroke-opacity: 0.95"/>
     <use xlink:href="#m3feafb16e8" x="706.742273" y="88.905335" style="fill: #d62728; fill-opacity: 0.95; stroke: #d62728; stroke-opacity: 0.95"/>
     <use xlink:href="#m3feafb16e8" x="798.171818" y="98.480367" style="fill: #d62728; fill-opacity: 0.95; stroke: #d62728; stroke-opacity: 0.95"/>
     <use xlink:href="#m3feafb16e8" x="889.601364" y="97.098345" style="fill: #d62728; fill-opacity: 0.95; stroke: #d62728; stroke-opacity: 0.95"/>
     <use xlink:href="#m3feafb16e8" x="981.030909" y="90.104084" style="fill: #d62728; fill-opacity: 0.95; stroke: #d62728; stroke-opacity: 0.95"/>
     <use xlink:href="#m3feafb16e8" x="1072.460455" y="80.978816" style="fill: #d62728; fill-opacity: 0.95; stroke: #d62728; stroke-opacity: 0.95"/>
     <use xlink:href="#m3feafb16e8" x="1163.89" y="149.228036" style="fill: #d62728; fill-opacity: 0.95; stroke: #d62728; stroke-opacity: 0.95"/>
    </g>
   </g>
   <g id="text_26">
    <!-- Metrics Comparison Across All Experiments -->
    <g style="fill: #262626" transform="translate(471.652031 20.303437) scale(0.18 -0.18)">
     <defs>
      <path id="Arial-BoldMT-43" d="M 3397 1684 
L 4294 1400 
Q 4088 650 3608 286 
Q 3128 -78 2391 -78 
Q 1478 -78 890 545 
Q 303 1169 303 2250 
Q 303 3394 893 4026 
Q 1484 4659 2447 4659 
Q 3288 4659 3813 4163 
Q 4125 3869 4281 3319 
L 3366 3100 
Q 3284 3456 3026 3662 
Q 2769 3869 2400 3869 
Q 1891 3869 1573 3503 
Q 1256 3138 1256 2319 
Q 1256 1450 1568 1081 
Q 1881 713 2381 713 
Q 2750 713 3015 947 
Q 3281 1181 3397 1684 
z
" transform="scale(0.015625)"/>
      <path id="Arial-BoldMT-41" d="M 4597 0 
L 3591 0 
L 3191 1041 
L 1359 1041 
L 981 0 
L 0 0 
L 1784 4581 
L 2763 4581 
L 4597 0 
z
M 2894 1813 
L 2263 3513 
L 1644 1813 
L 2894 1813 
z
" transform="scale(0.015625)"/>
     </defs>
     <use xlink:href="#Arial-BoldMT-4d"/>
     <use xlink:href="#Arial-BoldMT-65" transform="translate(83.300781 0)"/>
     <use xlink:href="#Arial-BoldMT-74" transform="translate(138.916016 0)"/>
     <use xlink:href="#Arial-BoldMT-72" transform="translate(172.216797 0)"/>
     <use xlink:href="#Arial-BoldMT-69" transform="translate(211.132812 0)"/>
     <use xlink:href="#Arial-BoldMT-63" transform="translate(238.916016 0)"/>
     <use xlink:href="#Arial-BoldMT-73" transform="translate(294.53125 0)"/>
     <use xlink:href="#Arial-BoldMT-20" transform="translate(350.146484 0)"/>
     <use xlink:href="#Arial-BoldMT-43" transform="translate(377.929688 0)"/>
     <use xlink:href="#Arial-BoldMT-6f" transform="translate(450.146484 0)"/>
     <use xlink:href="#Arial-BoldMT-6d" transform="translate(511.230469 0)"/>
     <use xlink:href="#Arial-BoldMT-70" transform="translate(600.146484 0)"/>
     <use xlink:href="#Arial-BoldMT-61" transform="translate(661.230469 0)"/>
     <use xlink:href="#Arial-BoldMT-72" transform="translate(716.845703 0)"/>
     <use xlink:href="#Arial-BoldMT-69" transform="translate(755.761719 0)"/>
     <use xlink:href="#Arial-BoldMT-73" transform="translate(783.544922 0)"/>
     <use xlink:href="#Arial-BoldMT-6f" transform="translate(839.160156 0)"/>
     <use xlink:href="#Arial-BoldMT-6e" transform="translate(900.244141 0)"/>
     <use xlink:href="#Arial-BoldMT-20" transform="translate(961.328125 0)"/>
     <use xlink:href="#Arial-BoldMT-41" transform="translate(985.361328 0)"/>
     <use xlink:href="#Arial-BoldMT-63" transform="translate(1057.578125 0)"/>
     <use xlink:href="#Arial-BoldMT-72" transform="translate(1113.193359 0)"/>
     <use xlink:href="#Arial-BoldMT-6f" transform="translate(1152.109375 0)"/>
     <use xlink:href="#Arial-BoldMT-73" transform="translate(1213.193359 0)"/>
     <use xlink:href="#Arial-BoldMT-73" transform="translate(1268.808594 0)"/>
     <use xlink:href="#Arial-BoldMT-20" transform="translate(1324.423828 0)"/>
     <use xlink:href="#Arial-BoldMT-41" transform="translate(1348.457031 0)"/>
     <use xlink:href="#Arial-BoldMT-6c" transform="translate(1420.673828 0)"/>
     <use xlink:href="#Arial-BoldMT-6c" transform="translate(1448.457031 0)"/>
     <use xlink:href="#Arial-BoldMT-20" transform="translate(1476.240234 0)"/>
     <use xlink:href="#Arial-BoldMT-45" transform="translate(1504.023438 0)"/>
     <use xlink:href="#Arial-BoldMT-78" transform="translate(1570.722656 0)"/>
     <use xlink:href="#Arial-BoldMT-70" transform="translate(1626.337891 0)"/>
     <use xlink:href="#Arial-BoldMT-65" transform="translate(1687.421875 0)"/>
     <use xlink:href="#Arial-BoldMT-72" transform="translate(1743.037109 0)"/>
     <use xlink:href="#Arial-BoldMT-69" transform="translate(1781.953125 0)"/>
     <use xlink:href="#Arial-BoldMT-6d" transform="translate(1809.736328 0)"/>
     <use xlink:href="#Arial-BoldMT-65" transform="translate(1898.652344 0)"/>
     <use xlink:href="#Arial-BoldMT-6e" transform="translate(1954.267578 0)"/>
     <use xlink:href="#Arial-BoldMT-74" transform="translate(2015.351562 0)"/>
     <use xlink:href="#Arial-BoldMT-73" transform="translate(2048.652344 0)"/>
    </g>
   </g>
   <g id="legend_1">
    <g id="patch_13">
     <path d="M 69.1425 457.824635 
L 241.134375 457.824635 
Q 244.434375 457.824635 244.434375 454.524635 
L 244.434375 337.910651 
Q 244.434375 334.610651 241.134375 334.610651 
L 69.1425 334.610651 
Q 65.8425 334.610651 65.8425 337.910651 
L 65.8425 454.524635 
Q 65.8425 457.824635 69.1425 457.824635 
z
" style="fill: #ffffff; opacity: 0.92; stroke: #cccccc; stroke-width: 1.5; stroke-linejoin: miter"/>
    </g>
    <g id="text_27">
     <!-- Metric -->
     <g style="fill: #262626" transform="translate(130.640156 354.094713) scale(0.18 -0.18)">
      <use xlink:href="#ArialMT-4d"/>
      <use xlink:href="#ArialMT-65" transform="translate(83.300781 0)"/>
      <use xlink:href="#ArialMT-74" transform="translate(138.916016 0)"/>
      <use xlink:href="#ArialMT-72" transform="translate(166.699219 0)"/>
      <use xlink:href="#ArialMT-69" transform="translate(200 0)"/>
      <use xlink:href="#ArialMT-63" transform="translate(222.216797 0)"/>
     </g>
    </g>
    <g id="line2d_27">
     <path d="M 72.4425 371.957604 
L 88.9425 371.957604 
L 105.4425 371.957604 
" style="fill: none; stroke: #1f77b4; stroke-opacity: 0.95; stroke-width: 2.8; stroke-linecap: round"/>
     <g>
      <use xlink:href="#m22cf1ce3b2" x="88.9425" y="371.957604" style="fill: #1f77b4; fill-opacity: 0.95; stroke: #1f77b4; stroke-opacity: 0.95"/>
     </g>
    </g>
    <g id="text_28">
     <!-- Accuracy -->
     <g style="fill: #262626" transform="translate(118.6425 377.732604) scale(0.165 -0.165)">
      <defs>
       <path id="ArialMT-75" d="M 2597 0 
L 2597 488 
Q 2209 -75 1544 -75 
Q 1250 -75 995 37 
Q 741 150 617 320 
Q 494 491 444 738 
Q 409 903 409 1263 
L 409 3319 
L 972 3319 
L 972 1478 
Q 972 1038 1006 884 
Q 1059 663 1231 536 
Q 1403 409 1656 409 
Q 1909 409 2131 539 
Q 2353 669 2445 892 
Q 2538 1116 2538 1541 
L 2538 3319 
L 3100 3319 
L 3100 0 
L 2597 0 
z
" transform="scale(0.015625)"/>
       <path id="ArialMT-79" d="M 397 -1278 
L 334 -750 
Q 519 -800 656 -800 
Q 844 -800 956 -737 
Q 1069 -675 1141 -563 
Q 1194 -478 1313 -144 
Q 1328 -97 1363 -6 
L 103 3319 
L 709 3319 
L 1400 1397 
Q 1534 1031 1641 628 
Q 1738 1016 1872 1384 
L 2581 3319 
L 3144 3319 
L 1881 -56 
Q 1678 -603 1566 -809 
Q 1416 -1088 1222 -1217 
Q 1028 -1347 759 -1347 
Q 597 -1347 397 -1278 
z
" transform="scale(0.015625)"/>
      </defs>
      <use xlink:href="#ArialMT-41"/>
      <use xlink:href="#ArialMT-63" transform="translate(66.699219 0)"/>
      <use xlink:href="#ArialMT-63" transform="translate(116.699219 0)"/>
      <use xlink:href="#ArialMT-75" transform="translate(166.699219 0)"/>
      <use xlink:href="#ArialMT-72" transform="translate(222.314453 0)"/>
      <use xlink:href="#ArialMT-61" transform="translate(255.615234 0)"/>
      <use xlink:href="#ArialMT-63" transform="translate(311.230469 0)"/>
      <use xlink:href="#ArialMT-79" transform="translate(361.230469 0)"/>
     </g>
    </g>
    <g id="line2d_28">
     <path d="M 72.4425 395.490729 
L 88.9425 395.490729 
L 105.4425 395.490729 
" style="fill: none; stroke: #ff7f0e; stroke-opacity: 0.95; stroke-width: 2.8; stroke-linecap: round"/>
     <g>
      <use xlink:href="#m289b20b5a9" x="88.9425" y="395.490729" style="fill: #ff7f0e; fill-opacity: 0.95; stroke: #ff7f0e; stroke-opacity: 0.95"/>
     </g>
    </g>
    <g id="text_29">
     <!-- F1-macro -->
     <g style="fill: #262626" transform="translate(118.6425 401.265729) scale(0.165 -0.165)">
      <use xlink:href="#ArialMT-46"/>
      <use xlink:href="#ArialMT-31" transform="translate(61.083984 0)"/>
      <use xlink:href="#ArialMT-2d" transform="translate(116.699219 0)"/>
      <use xlink:href="#ArialMT-6d" transform="translate(150 0)"/>
      <use xlink:href="#ArialMT-61" transform="translate(233.300781 0)"/>
      <use xlink:href="#ArialMT-63" transform="translate(288.916016 0)"/>
      <use xlink:href="#ArialMT-72" transform="translate(338.916016 0)"/>
      <use xlink:href="#ArialMT-6f" transform="translate(372.216797 0)"/>
     </g>
    </g>
    <g id="line2d_29">
     <path d="M 72.4425 418.830494 
L 88.9425 418.830494 
L 105.4425 418.830494 
" style="fill: none; stroke: #2ca02c; stroke-opacity: 0.95; stroke-width: 2.8; stroke-linecap: round"/>
     <g>
      <use xlink:href="#ma45876dcd5" x="88.9425" y="418.830494" style="fill: #2ca02c; fill-opacity: 0.95; stroke: #2ca02c; stroke-opacity: 0.95"/>
     </g>
    </g>
    <g id="text_30">
     <!-- Precision-macro -->
     <g style="fill: #262626" transform="translate(118.6425 424.605494) scale(0.165 -0.165)">
      <defs>
       <path id="ArialMT-50" d="M 494 0 
L 494 4581 
L 2222 4581 
Q 2678 4581 2919 4538 
Q 3256 4481 3484 4323 
Q 3713 4166 3852 3881 
Q 3991 3597 3991 3256 
Q 3991 2672 3619 2267 
Q 3247 1863 2275 1863 
L 1100 1863 
L 1100 0 
L 494 0 
z
M 1100 2403 
L 2284 2403 
Q 2872 2403 3119 2622 
Q 3366 2841 3366 3238 
Q 3366 3525 3220 3729 
Q 3075 3934 2838 4000 
Q 2684 4041 2272 4041 
L 1100 4041 
L 1100 2403 
z
" transform="scale(0.015625)"/>
      </defs>
      <use xlink:href="#ArialMT-50"/>
      <use xlink:href="#ArialMT-72" transform="translate(66.699219 0)"/>
      <use xlink:href="#ArialMT-65" transform="translate(100 0)"/>
      <use xlink:href="#ArialMT-63" transform="translate(155.615234 0)"/>
      <use xlink:href="#ArialMT-69" transform="translate(205.615234 0)"/>
      <use xlink:href="#ArialMT-73" transform="translate(227.832031 0)"/>
      <use xlink:href="#ArialMT-69" transform="translate(277.832031 0)"/>
      <use xlink:href="#ArialMT-6f" transform="translate(300.048828 0)"/>
      <use xlink:href="#ArialMT-6e" transform="translate(355.664062 0)"/>
      <use xlink:href="#ArialMT-2d" transform="translate(411.279297 0)"/>
      <use xlink:href="#ArialMT-6d" transform="translate(444.580078 0)"/>
      <use xlink:href="#ArialMT-61" transform="translate(527.880859 0)"/>
      <use xlink:href="#ArialMT-63" transform="translate(583.496094 0)"/>
      <use xlink:href="#ArialMT-72" transform="translate(633.496094 0)"/>
      <use xlink:href="#ArialMT-6f" transform="translate(666.796875 0)"/>
     </g>
    </g>
    <g id="line2d_30">
     <path d="M 72.4425 442.17026 
L 88.9425 442.17026 
L 105.4425 442.17026 
" style="fill: none; stroke: #d62728; stroke-opacity: 0.95; stroke-width: 2.8; stroke-linecap: round"/>
     <g>
      <use xlink:href="#m3feafb16e8" x="88.9425" y="442.17026" style="fill: #d62728; fill-opacity: 0.95; stroke: #d62728; stroke-opacity: 0.95"/>
     </g>
    </g>
    <g id="text_31">
     <!-- Recall-macro -->
     <g style="fill: #262626" transform="translate(118.6425 447.94526) scale(0.165 -0.165)">
      <defs>
       <path id="ArialMT-6c" d="M 409 0 
L 409 4581 
L 972 4581 
L 972 0 
L 409 0 
z
" transform="scale(0.015625)"/>
      </defs>
      <use xlink:href="#ArialMT-52"/>
      <use xlink:href="#ArialMT-65" transform="translate(72.216797 0)"/>
      <use xlink:href="#ArialMT-63" transform="translate(127.832031 0)"/>
      <use xlink:href="#ArialMT-61" transform="translate(177.832031 0)"/>
      <use xlink:href="#ArialMT-6c" transform="translate(233.447266 0)"/>
      <use xlink:href="#ArialMT-6c" transform="translate(255.664062 0)"/>
      <use xlink:href="#ArialMT-2d" transform="translate(277.880859 0)"/>
      <use xlink:href="#ArialMT-6d" transform="translate(311.181641 0)"/>
      <use xlink:href="#ArialMT-61" transform="translate(394.482422 0)"/>
      <use xlink:href="#ArialMT-63" transform="translate(450.097656 0)"/>
      <use xlink:href="#ArialMT-72" transform="translate(500.097656 0)"/>
      <use xlink:href="#ArialMT-6f" transform="translate(533.398438 0)"/>
     </g>
    </g>
   </g>
  </g>
 </g>
 <defs>
  <clipPath id="pf66728b48c">
   <rect x="57.5925" y="36.303437" width="1206.87" height="429.771197"/>
  </clipPath>
 </defs>
</svg>
